<?xml version="1.0" encoding="UTF-8"?>
<svg id="Layer_1" data-name="Layer 1" xmlns="http://www.w3.org/2000/svg" viewBox="0 0 763.06 130.87">
  <defs>
    <style>
      .cls-1 {
        fill: #fff;
      }
    </style>
  </defs>
  <polygon class="cls-1" points="681.74 104.92 664.36 128.56 601.74 128.29 650.33 65.32 602.25 4.32 664.75 3.92 763.06 128.09 700.59 128.7 681.74 104.92"/>
  <polygon class="cls-1" points="597.89 128.01 580.87 127.57 497.25 26.34 496.7 128.41 482.3 128.31 482.3 4.08 498.98 3.74 582.92 106.02 583.48 4.05 597.88 3.99 597.89 128.01"/>
  <path class="cls-1" d="M93.44,122.12c-18.25,12.14-59.32,11.78-78.14-1.88C4.5,112.4-.06,98.57,0,85.32l14.11-.02c1.51,8.26,3.71,17.75,9.93,22.67,19.2,15.18,55.77,11.72,65.64-3.37,3.92-5.99,4.31-16.36-.69-21.56-6.14-6.38-15.78-8.67-24.13-10.11l-29.57-5.11c-9.38-1.62-21.05-6.3-26.64-14.51C-3.5,35.46,6.03,11.2,26,4.62c18.95-6.25,38.9-6.4,57.13,1.06,14.25,5.84,22.83,18.79,21.79,34.2h-13.92c-4.16-22.4-17.51-24.79-38.52-25.41-12.86-.38-26.39,2.24-31.93,14.99-3.33,7.65,1.17,16.11,8.53,19.77,22.79,11.34,57.57,7.59,72.45,23.17,13.51,14.14,7.46,39.36-8.09,49.71Z"/>
  <polygon class="cls-1" points="220.35 70.73 139.19 70.7 139.19 114.04 223.98 114.03 223.94 128.5 124.74 128.47 124.74 3.91 223.89 3.92 223.92 16.58 139.19 16.54 139.19 56.27 220.36 56.25 220.35 70.73"/>
  <polygon class="cls-1" points="462.33 70.72 381.17 70.71 381.17 114.04 465.97 114.03 465.92 128.49 366.73 128.48 366.72 3.91 465.87 3.91 465.91 16.58 381.18 16.55 381.18 56.27 462.34 56.26 462.33 70.72"/>
  <polygon class="cls-1" points="341.17 4.33 357.58 4.04 302.81 128.14 287.55 128.19 232.36 4.82 249.45 4.12 295.52 109.22 341.17 4.33"/>
  <polygon class="cls-1" points="699.85 39.65 719.67 13.4 700.85 12.76 700.96 3.88 762.86 4.01 735.19 40.14 699.85 39.65"/>
</svg>