<?xml version="1.0" encoding="UTF-8"?>
<svg id="Layer_1" data-name="Layer 1" xmlns="http://www.w3.org/2000/svg" viewBox="0 0 900.99 794.63">
  <defs>
    <style>
      .cls-1 {
        fill: #312d28;
      }

      .cls-2 {
        fill: #19120e;
      }

      .cls-3 {
        fill: #b38961;
      }

      .cls-4 {
        fill: #583920;
      }

      .cls-5 {
        fill: #332d27;
      }

      .cls-6 {
        fill: #3a322b;
      }

      .cls-7 {
        fill: #ebdcc2;
      }

      .cls-8 {
        fill: #120e0b;
      }

      .cls-9 {
        fill: #ac835f;
      }

      .cls-10 {
        fill: #39332b;
      }

      .cls-11 {
        fill: #5d3f25;
      }

      .cls-12 {
        fill: #453f34;
      }

      .cls-13 {
        fill: #454039;
      }

      .cls-14 {
        fill: #4a433c;
      }

      .cls-15 {
        fill: #f3e6cd;
      }

      .cls-16 {
        fill: #3c342e;
      }

      .cls-17 {
        fill: #b28863;
      }

      .cls-18 {
        fill: #51321c;
      }

      .cls-19 {
        fill: #57381e;
      }

      .cls-20 {
        fill: #ede3ce;
      }

      .cls-21 {
        fill: #e4dac7;
      }

      .cls-22 {
        fill: #ebdec9;
      }

      .cls-23 {
        fill: #4a2e17;
      }

      .cls-24 {
        fill: #e1d4bb;
      }

      .cls-25 {
        fill: #cfc4b1;
      }

      .cls-26 {
        fill: #362e28;
      }

      .cls-27 {
        fill: #f3e6ce;
      }

      .cls-28 {
        fill: #e8dbc0;
      }

      .cls-29 {
        fill: #4c2e17;
      }

      .cls-30 {
        fill: #ac835c;
      }

      .cls-31 {
        fill: #b28861;
      }

      .cls-32 {
        fill: #e3d8c4;
      }

      .cls-33 {
        fill: #462a16;
      }

      .cls-34 {
        fill: #453e36;
      }

      .cls-35 {
        fill: #f0e5d2;
      }

      .cls-36 {
        fill: #e7dbc5;
      }

      .cls-37 {
        fill: #54351b;
      }

      .cls-38 {
        fill: #3a352e;
      }

      .cls-39 {
        fill: #524840;
      }

      .cls-40 {
        fill: #e2d6c1;
      }

      .cls-41 {
        fill: #484139;
      }

      .cls-42 {
        fill: #f4e8d0;
      }

      .cls-43 {
        fill: #0e0b07;
      }

      .cls-44 {
        fill: #b9af9f;
      }

      .cls-45 {
        fill: #eddfc4;
      }

      .cls-46 {
        fill: #e5dac4;
      }

      .cls-47 {
        fill: #391f0f;
      }

      .cls-48 {
        fill: #39332d;
      }

      .cls-49 {
        fill: #453e35;
      }

      .cls-50 {
        fill: #eadac1;
      }

      .cls-51 {
        fill: #a19687;
      }

      .cls-52 {
        fill: #53341c;
      }

      .cls-53 {
        fill: #f3e8d0;
      }

      .cls-54 {
        fill: #342d27;
      }

      .cls-55 {
        fill: #352f2a;
      }

      .cls-56 {
        fill: #d2c5af;
      }

      .cls-57 {
        fill: #f4e5cd;
      }

      .cls-58 {
        fill: #eadcc5;
      }

      .cls-59 {
        fill: #e7dcc6;
      }

      .cls-60 {
        fill: #b28760;
      }

      .cls-61 {
        fill: #38312a;
      }

      .cls-62 {
        fill: #352f28;
      }

      .cls-63 {
        fill: #eaddc0;
      }

      .cls-64 {
        fill: #423a33;
      }

      .cls-65 {
        fill: #413a32;
      }

      .cls-66 {
        fill: #555048;
      }

      .cls-67 {
        fill: #433e37;
      }

      .cls-68 {
        fill: #18120d;
      }

      .cls-69 {
        fill: #443a32;
      }

      .cls-70 {
        fill: #241f1a;
      }

      .cls-71 {
        fill: #4a423b;
      }

      .cls-72 {
        fill: #403b34;
      }

      .cls-73 {
        fill: #353029;
      }

      .cls-74 {
        fill: #403a34;
      }

      .cls-75 {
        fill: #efe0c7;
      }

      .cls-76 {
        fill: #3c352f;
      }

      .cls-77 {
        fill: #423a34;
      }

      .cls-78 {
        fill: #413831;
      }

      .cls-79 {
        fill: #e3d6c1;
      }

      .cls-80 {
        fill: #65584a;
      }

      .cls-81 {
        fill: #130d0a;
      }

      .cls-82 {
        fill: #ada494;
      }

      .cls-83 {
        fill: #d2c9b3;
      }

      .cls-84 {
        fill: #e7dac1;
      }

      .cls-85 {
        fill: #3b322b;
      }

      .cls-86 {
        fill: #322b25;
      }

      .cls-87 {
        fill: #f0e4ce;
      }

      .cls-88 {
        fill: #4d433a;
      }

      .cls-89 {
        fill: #efe4cf;
      }

      .cls-90 {
        fill: #50321a;
      }

      .cls-91 {
        fill: #69482d;
      }

      .cls-92 {
        fill: #f3e8d1;
      }

      .cls-93 {
        fill: #ede1c8;
      }

      .cls-94 {
        fill: #403830;
      }

      .cls-95 {
        fill: #b48a64;
      }

      .cls-96 {
        fill: #463c33;
      }

      .cls-97 {
        fill: #cabeab;
      }

      .cls-98 {
        fill: #5a3b20;
      }

      .cls-99 {
        fill: #e3d6bb;
      }

      .cls-100 {
        fill: #e4d7bd;
      }

      .cls-101 {
        fill: #e1d4bf;
      }

      .cls-102 {
        fill: #ae855e;
      }

      .cls-103 {
        fill: #3c342d;
      }

      .cls-104 {
        fill: #4e3018;
      }

      .cls-105 {
        fill: #593b22;
      }

      .cls-106 {
        fill: #f3e6cc;
      }

      .cls-107 {
        fill: #3d3631;
      }

      .cls-108 {
        fill: #f2e7cf;
      }

      .cls-109 {
        fill: #595045;
      }

      .cls-110 {
        fill: #37322c;
      }

      .cls-111 {
        fill: #433a34;
      }

      .cls-112 {
        fill: #b4a898;
      }

      .cls-113 {
        fill: #4a413a;
      }

      .cls-114 {
        fill: #ebdcc4;
      }

      .cls-115 {
        fill: #4a2d17;
      }

      .cls-116 {
        fill: #59381f;
      }

      .cls-117 {
        fill: #b58b63;
      }

      .cls-118 {
        fill: #352c25;
      }

      .cls-119 {
        fill: #423b35;
      }

      .cls-120 {
        fill: #453d34;
      }

      .cls-121 {
        fill: #d3c8b4;
      }

      .cls-122 {
        fill: #51341b;
      }

      .cls-123 {
        fill: #b28961;
      }

      .cls-124 {
        fill: #423a32;
      }

      .cls-125 {
        fill: #403933;
      }

      .cls-126 {
        fill: #5a3a22;
      }

      .cls-127 {
        fill: #3e3831;
      }

      .cls-128 {
        fill: #4d3019;
      }

      .cls-129 {
        fill: #563820;
      }

      .cls-130 {
        fill: #b7aea0;
      }

      .cls-131 {
        fill: #afa699;
      }

      .cls-132 {
        fill: #ded5c0;
      }

      .cls-133 {
        fill: #423b33;
      }

      .cls-134 {
        fill: #312c28;
      }

      .cls-135 {
        fill: #4a433b;
      }

      .cls-136 {
        fill: #aca394;
      }

      .cls-137 {
        fill: #ebe0cc;
      }

      .cls-138 {
        fill: #17130d;
      }

      .cls-139 {
        fill: #462b18;
      }

      .cls-140 {
        fill: #b28860;
      }

      .cls-141 {
        fill: #332e28;
      }

      .cls-142 {
        fill: #bbb1a3;
      }

      .cls-143 {
        fill: #453c36;
      }

      .cls-144 {
        fill: #373129;
      }

      .cls-145 {
        fill: #593c23;
      }

      .cls-146 {
        fill: #cfc1ad;
      }

      .cls-147 {
        fill: #e7d9c1;
      }

      .cls-148 {
        fill: #3e3833;
      }

      .cls-149 {
        fill: #513119;
      }

      .cls-150 {
        fill: #443b35;
      }

      .cls-151 {
        fill: #b6ab9c;
      }

      .cls-152 {
        fill: #4f311b;
      }

      .cls-153 {
        fill: #888074;
      }

      .cls-154 {
        fill: #d4cab9;
      }

      .cls-155 {
        fill: #38332c;
      }

      .cls-156 {
        fill: #ddd1b9;
      }

      .cls-157 {
        fill: #52341e;
      }

      .cls-158 {
        fill: #2d251d;
      }

      .cls-159 {
        fill: #4f483f;
      }

      .cls-160 {
        fill: #3e3630;
      }

      .cls-161 {
        fill: #3c342b;
      }

      .cls-162 {
        fill: #38342d;
      }

      .cls-163 {
        fill: #3c3830;
      }

      .cls-164 {
        fill: #492d17;
      }

      .cls-165 {
        fill: #b1875f;
      }

      .cls-166 {
        fill: #443d37;
      }

      .cls-167 {
        fill: #e0d3bb;
      }

      .cls-168 {
        fill: #342f2a;
      }

      .cls-169 {
        fill: #3e372f;
      }

      .cls-170 {
        fill: #413c34;
      }

      .cls-171 {
        fill: #4e321c;
      }

      .cls-172 {
        fill: #51331b;
      }

      .cls-173 {
        fill: #705742;
      }

      .cls-174 {
        fill: #433b33;
      }

      .cls-175 {
        fill: #37312b;
      }

      .cls-176 {
        fill: #423a31;
      }

      .cls-177 {
        fill: #eadcc1;
      }

      .cls-178 {
        fill: #b0a293;
      }

      .cls-179 {
        fill: #37332b;
      }

      .cls-180 {
        fill: #ecdfca;
      }

      .cls-181 {
        fill: #b7ad9d;
      }

      .cls-182 {
        fill: #4c2f17;
      }

      .cls-183 {
        fill: #403931;
      }

      .cls-184 {
        fill: #e3d7c1;
      }

      .cls-185 {
        fill: #4f321b;
      }

      .cls-186 {
        fill: #1e1814;
      }

      .cls-187 {
        fill: #3f3831;
      }

      .cls-188 {
        fill: #3d3731;
      }

      .cls-189 {
        fill: #28211b;
      }

      .cls-190 {
        fill: #494038;
      }

      .cls-191 {
        fill: #49423b;
      }

      .cls-192 {
        fill: #4b2f18;
      }

      .cls-193 {
        fill: #a97f59;
      }

      .cls-194 {
        fill: #39322b;
      }

      .cls-195 {
        fill: #362f29;
      }

      .cls-196 {
        fill: #edddc2;
      }

      .cls-197 {
        fill: #281f19;
      }

      .cls-198 {
        fill: #a3988a;
      }

      .cls-199 {
        fill: #d9cebc;
      }

      .cls-200 {
        fill: #483e37;
      }

      .cls-201 {
        fill: #483f38;
      }

      .cls-202 {
        fill: #36302a;
      }

      .cls-203 {
        fill: #f4e7cf;
      }

      .cls-204 {
        fill: #413c36;
      }

      .cls-205 {
        fill: #362d23;
      }

      .cls-206 {
        fill: #3e362f;
      }

      .cls-207 {
        fill: #4c443c;
      }

      .cls-208 {
        fill: #aba18f;
      }

      .cls-209 {
        fill: #35312a;
      }

      .cls-210 {
        fill: #c3bba8;
      }

      .cls-211 {
        fill: #ddd0b8;
      }

      .cls-212 {
        fill: #463e36;
      }

      .cls-213 {
        fill: #473f37;
      }

      .cls-214 {
        fill: #b4aa9a;
      }

      .cls-215 {
        fill: #4b433b;
      }

      .cls-216 {
        fill: #ddd3c0;
      }

      .cls-217 {
        fill: #453e37;
      }

      .cls-218 {
        fill: #312c26;
      }

      .cls-219 {
        fill: #29231d;
      }

      .cls-220 {
        fill: #4e463c;
      }

      .cls-221 {
        fill: #e6d8bd;
      }

      .cls-222 {
        fill: #2f2b22;
      }

      .cls-223 {
        fill: #4f4741;
      }

      .cls-224 {
        fill: #3e3631;
      }

      .cls-225 {
        fill: #ece1cc;
      }

      .cls-226 {
        fill: #54361e;
      }

      .cls-227 {
        fill: #c0b39f;
      }

      .cls-228 {
        fill: #40382f;
      }

      .cls-229 {
        fill: #4a2d16;
      }

      .cls-230 {
        fill: #efe2cc;
      }

      .cls-231 {
        fill: #484037;
      }

      .cls-232 {
        fill: #b1865f;
      }

      .cls-233 {
        fill: #1b1814;
      }

      .cls-234 {
        fill: #51483d;
      }

      .cls-235 {
        fill: #39352e;
      }

      .cls-236 {
        fill: #bbaf9f;
      }

      .cls-237 {
        fill: #b9ae9e;
      }

      .cls-238 {
        fill: #3a322a;
      }

      .cls-239 {
        fill: #f3e7cf;
      }

      .cls-240 {
        fill: #f4e8d1;
      }

      .cls-241 {
        fill: #e9dabf;
      }

      .cls-242 {
        fill: #eeddc0;
      }

      .cls-243 {
        fill: #3a332d;
      }

      .cls-244 {
        fill: #2c251f;
      }

      .cls-245 {
        fill: #191410;
      }

      .cls-246 {
        fill: #423931;
      }

      .cls-247 {
        fill: #b2875f;
      }

      .cls-248 {
        fill: #b38760;
      }

      .cls-249 {
        fill: #eadec9;
      }

      .cls-250 {
        fill: #593a23;
      }

      .cls-251 {
        fill: #2f2923;
      }

      .cls-252 {
        fill: #f3e5cd;
      }

      .cls-253 {
        fill: #3d352d;
      }

      .cls-254 {
        fill: #3b3530;
      }

      .cls-255 {
        fill: #bdb1a2;
      }

      .cls-256 {
        fill: #3a332b;
      }

      .cls-257 {
        fill: #e9e0c9;
      }

      .cls-258 {
        fill: #ecdcc4;
      }

      .cls-259 {
        fill: #b38861;
      }

      .cls-260 {
        fill: #1c110c;
      }

      .cls-261 {
        fill: #3a332c;
      }

      .cls-262 {
        fill: #453d36;
      }

      .cls-263 {
        fill: #b1a495;
      }

      .cls-264 {
        fill: #52351e;
      }

      .cls-265 {
        fill: #3d342d;
      }

      .cls-266 {
        fill: #472a16;
      }

      .cls-267 {
        fill: #cdc2ae;
      }

      .cls-268 {
        fill: #2e2924;
      }

      .cls-269 {
        fill: #1e1711;
      }

      .cls-270 {
        fill: #4d3018;
      }

      .cls-271 {
        fill: #362e27;
      }

      .cls-272 {
        fill: #120d0a;
      }

      .cls-273 {
        fill: #3f352e;
      }

      .cls-274 {
        fill: #4b2e17;
      }

      .cls-275 {
        fill: #d8ceba;
      }

      .cls-276 {
        fill: #966f4d;
      }

      .cls-277 {
        fill: #322a24;
      }

      .cls-278 {
        fill: #b3875f;
      }

      .cls-279 {
        fill: #b5a999;
      }

      .cls-280 {
        fill: #f4e9d0;
      }

      .cls-281 {
        fill: #492d18;
      }

      .cls-282 {
        fill: #39312b;
      }

      .cls-283 {
        fill: #443c35;
      }

      .cls-284 {
        fill: #130c08;
      }

      .cls-285 {
        fill: #e4d8c2;
      }

      .cls-286 {
        fill: #c5bbaa;
      }

      .cls-287 {
        fill: #5f4126;
      }

      .cls-288 {
        fill: #e9ddc5;
      }

      .cls-289 {
        fill: #51351c;
      }

      .cls-290 {
        fill: #4b453d;
      }

      .cls-291 {
        fill: #312a24;
      }

      .cls-292 {
        fill: #3b3730;
      }

      .cls-293 {
        fill: #c1b6a5;
      }

      .cls-294 {
        fill: #f3e8d3;
      }

      .cls-295 {
        fill: #352d27;
      }

      .cls-296 {
        fill: #55371e;
      }

      .cls-297 {
        fill: #2e2923;
      }

      .cls-298 {
        fill: #3d3630;
      }

      .cls-299 {
        fill: #463f37;
      }

      .cls-300 {
        fill: #423b32;
      }

      .cls-301 {
        fill: #4d3017;
      }

      .cls-302 {
        fill: #463d35;
      }

      .cls-303 {
        fill: #e9dec8;
      }

      .cls-304 {
        fill: #2d2923;
      }

      .cls-305 {
        fill: #b38962;
      }

      .cls-306 {
        fill: #eadec4;
      }

      .cls-307 {
        fill: #967452;
      }

      .cls-308 {
        fill: #4e321a;
      }

      .cls-309 {
        fill: #3a352f;
      }

      .cls-310 {
        fill: #463f39;
      }

      .cls-311 {
        fill: #322b24;
      }

      .cls-312 {
        fill: #29231e;
      }

      .cls-313 {
        fill: #9f9586;
      }

      .cls-314 {
        fill: #3c3630;
      }

      .cls-315 {
        fill: #e8dec9;
      }

      .cls-316 {
        fill: #725235;
      }

      .cls-317 {
        fill: #403932;
      }

      .cls-318 {
        fill: #e3d6be;
      }

      .cls-319 {
        fill: #453f38;
      }

      .cls-320 {
        fill: #624228;
      }
    </style>
  </defs>
  <path class="cls-47" d="M896.23,287.24l-52.72.45c-8.3-.88-8.31-.66-.05.68,1.52.91,3.36,2.61,3.28,4.91l-.62,16.89c-1.19,4.43-7.31,4.45-11.42,3.53l1.57,4.73v15.43c.01,3.46-2.54,5.75-5.88,5.75h-17.47c2.81,5.33,1.55,10.16,1.86,15.73.22,3.91-.28,9.62-5.28,9.68l-24.48.31-58.26.46c-.09.27.23.86.6.86l58.67.15c4.35.01,6.88,3.09,6.89,7.39v11.96c.01,2.66-.7,4.68-2.32,6.04-1.38,1.16-3.17,1.42-5.56,1.42h-78.22s-10.84,14.21-10.84,14.21l-4.03-11.35-10.42,14.61-3.66,54.83-9.32,34.31c-8.48,5.7-10.84,7.02-11.82,17.66l57.06.04c3.73,0,5.98,2.72,5.99,6.29l.06,13.73c.02,4.84-3.74,6.62-8.13,6.65l-51.82.31c-5.51.03-12.83-1.88-17.6.64-5.99,3.17-8.94,9.84-14.21,14.6,8.27,1.35,15.71.54,23.89.54l31.05-.03,26.6-.05c3.87,0,7.06,2.19,7.04,6.1l-.07,14.4c-.02,4.44-2.99,5.96-7.08,5.97l-105.11.08-5.79,8.22-44.4-4.3c-2.77,1.92-5.47,5.83-8.93,6.24,2.97.71,5,.33,6.79,2.06.96.93,1.92,2.84,1.92,4.94v14.02c0,2.95-2.21,6-5.38,6.03l-61.24.46c-3.4.23-8.94,3.89-10.61,6.4-2.05,3.08-1.16,8.3-1.25,11.88l121.63.12c3.06,0,4.88,3.9,4.88,6.26v13.21c.01,3.58-2.08,7.09-6,7.09h-123.34s-3.97,20.77-3.97,20.77l74.69.11c2.93,0,4.99,2.94,4.99,5.58l.02,14.69c0,4.49-3.18,5.77-7.18,5.77l-100.99-.03c-5.23,7.6-8.77,15.7-15.57,21.44l-27.99,23.63-10.56,17.66-14.09,15.19-.33-19.01,5.52-9.79-58-51.53-16.59-.35,45.67-45.76,27.25-14.63,1.95-13.59-2.67-12.66-13.26-2.05,5.98-30.24c-2.63-1.78-4.74-5.28-7.62-5.55l-10.04-.91-8.81-31.23-36.88-6.23c.26-10.99.69-21.38-.95-31.94h-59.7c-2.61.01-4.74.15-6.54-1.73-.93-.97-1.79-2.79-1.79-4.99v-14c0-3.34,2.94-6.09,6.37-6.09h65.61s6.66-21.58,6.66-21.58l-25.08-.13c-3.78-.02-6.73-2.82-6.74-6.72l-.04-12.99c-.01-4.3,2.72-6.75,6.79-6.81l11.4-.19c.43-3.36.61-6.41-.14-9.56l-35.15-4.06,1.1-40.56-8.85-10.79-71.76-28.57-15.28-23.36.08-27.23-29.86,3.84-30.91,16.93c-14.2,2.95-29.17-1.13-44.46.25l1.75-31.26-33.12,10.32L0,250.99c1.6-4.18,1.19-9.59,3.82-13.17l13.2-9.56,1.38-13.45,19.3-26.85,41.44-5.42,18.79-64.2-13.14-17.16c-1.78-4.37-.17-10.22-.65-15.25l18.81-4.71c1.43-.36,2.18-3.64,1.08-3.74l-14.48-1.28,2.37-17.47,38.27,2.32,12.98-4.2,4.97,21.13,32.87,1.45,39.82-22.55c.39-2.44-.49-5.95-2.26-6.4l-10.36-2.61-11.63-32.08,32.97,7.4c5.34.19,12.71-1.77,17.41-4.16L284.45,0l12.43,5.56-3.09,9.02,9.28,8.75-11.56,24.73,19.56,28.72,38.27-8.03,19.47,2.15c-.1-2.74-1.3-5.15-2.2-7.76l32.19-5.36,12.65,7.15,31.77-1.17,25.14-38.71,14.21,50.61,16.97,8.88c-1.19,2.19-2.43,3.39-2.68,5.46l53.08.1c3.33,0,6.17,2.26,6.18,5.66l.06,14.95c.01,2.79-2.22,5.5-5.21,5.51l-63.5.2c-.95,0-.94,3.37.17,3.58l35.5,6.65c.54.84.46,2.62,1.03,3.1,3.42,2.11,5.16,4.95,5.31,9.21,2.76-.96,3.93-2.54,6.49-4.16l36.15,11.01c4.69,1.43,7.34,6.52,11.46,9.75,2.49-2.08,4.92-4.2,8.36-4.19l41.01.08,42.69-.25c3.91-.02,6.21,3.25,6.2,6.98v12.99c-.02,4.38-2.94,6.52-6.75,6.54l-50.17.27,38.86,15.05,25.18-1.14,9.03,7.7c2.57-3.72,6.84-6.56,11.95-6.57l97.75-.22c3.85,0,6.66,2.66,6.69,6.48l.12,13.06c.03,3.7-2.09,7.01-5.94,7.02l-89.95.27c6.8,6.12,11.78,13.86,19.13,18.21l24.66,9.66c-1.25-5.12-1.83-8.04.35-11.6,1.76-2.88,4.99-4.76,9.13-4.8l33.68-.35,31.23.18c3.9.02,7.15,2.33,7.13,6.37l-.1,14.53c-.02,3.29-2.59,5.7-5.99,5.68l-61.5-.26c-.43,3.28,1.83,3.7,4.48,3.7l114.14-.06c3.66,0,6.03,2.68,6.03,5.97v14.91c0,2.3-2.33,5.47-4.76,5.52Z"/>
  <g>
    <path class="cls-102" d="M471,598.07c-1.63.02-1.76-4.1-.72-4.09l38.45.29c6.9.05,8.2-4.07,11.96-6.88l33.08-7.62c1.11-.25,2.03,2.29,2.22,3.04.29,1.14-2.08.97-3.18,1.73l-8.91,6.27-16.89,6.71-56.02.56Z"/>
    <path class="cls-60" d="M636.76,507.05c-2.2,7.5,1.57,13.5-3.83,12.51l.31-17.5,10.7-2.65c2.42-.6,7.9,2.95,8.18,5.48.52,4.72-1.46,9.09-2.42,13.25-4.85-.24-8.19-.01-12.2.95.11-4.51.55-7.79-.74-12.05Z"/>
    <path class="cls-123" d="M745.52,331.3c4.11-.6.15,3.04-7.36,6.7-3.49,1.7-8.29.47-12.08.44l-11.24-11.31c3.31-2.07,6.17-3.31,9.83-4l12.17,10.8c3-.34,5.28-2.13,8.69-2.62Z"/>
    <path class="cls-30" d="M481.32,124.9l11.53,2.69-28.72.5,8.95-11.07c1.03-1.28,5.82-1.27,6.72.11,1.2,1.84,1.14,4.77,1.52,7.77Z"/>
    <path class="cls-60" d="M567.7,582.22l10,1.87c1.52.28,3.06,1.33,3.48,3.25l-20.4-2.78c-2.58-.35-4.28-4.32-3.95-6.7l14.67.22c2.5.04,4.35,1.05,5.25,3.49l-6.92-.18c-.96-.02-1.62.23-2.14.83Z"/>
    <path class="cls-28" d="M171.44,292.82l-23,2.92c1.07-2.52,2.36-3.6,3.91-5.48l19.09,2.55Z"/>
    <ellipse class="cls-225" cx="468.18" cy="654.15" rx="4.24" ry="4.25"/>
    <ellipse class="cls-35" cx="768.35" cy="298.88" rx="4.21" ry="4.22"/>
    <path class="cls-316" d="M713.86,337.5l.11-3.98,5.7,5.01c-1.15,1.34-2.21,1.51-3.34,1.99-.79-1.47-1.55-2.32-2.47-3.03Z"/>
    <g>
      <path class="cls-3" d="M214.65,257.61l-16.18,7.9-.72,8.07c-6.14,4.28-11.71,8.65-17.5,13.95l-29.7-4.47-11.18,12.69-63.77-37.29c-11.08-6.48-24.23-7.69-36.56-11.06l-27.71-7.58c3.88-3.31,9.65-4.34,11.79-8.49l1.14-13.76,16.75-23.45,43.24-5.9,20.82-71.07-13.63-17.33c-1.73-2.2-.77-6.28-.47-9.02l19.77-4.98-.07-14.88-13.27-.7c-.53-1.6-.5-3.02-.12-4.61l33.02,2.13c3.04.2,5.58-1.68,8.35-2.64l4.39,18.91,40.11,2.31,40.91-24.26c2.41-1.43,3.8-2.84,6.26-1.43,2.26,1.29,3.14,2.7,3.11,5.79-.2,18.61,1.81,36.77,3.1,55.03,6.28,6.28,11.87,11.43,17.07,18.58l-47.77.11c-3.21,0-6.16,1.84-6.16,5.29l.02,15.78c0,3.44,2.84,5.36,6.2,5.35l81.49-.26c3.05,0,12.91-11.09,9.22-19.59-1.19-2.73-5.06-6.29-9.36-6.34l-32.18-.38,3.27-20.32c.38-2.38,4.61-3.95,6.79-5.11l15.97,8.13,5.95-22.84,12.62.13c3.53.04,7.03-.2,9.73,1.78l.56,18.1,43.73,33.38-44.85,86.84,6.41,19.59-10.01,23.14-65.93-7.96-24.66-17.27Z"/>
      <g>
        <polygon class="cls-229" points="340.29 161.01 342.45 162.15 310.77 222.42 308.6 221.28 340.29 161.01"/>
        <path class="cls-164" d="M90.42,186.61c4.21-21,10.78-40.47,18.24-59.82-4.71,20.69-10.49,40.38-18.24,59.82Z"/>
        <path class="cls-104" d="M297.6,275.27c-4.45.4-9.28-.07-13.85-.82-13.64-2.22-26.95-2.11-40.41-6.72,17.98,1.47,35.9,3.23,54.26,7.54Z"/>
        <path class="cls-171" d="M228.49,111.26c0,3.45-.04,6.18-2.14,8.23l-.09-42.22c1.04.04,2.13,1.1,2.13,2.03l.09,31.96Z"/>
        <path class="cls-172" d="M75.42,248.74c-14.18-1.69-27.25-4.86-40.31-9.32,14.26,1.29,27.36,4.65,40.31,9.32Z"/>
        <path class="cls-115" d="M225.37,69.61c-10.26,8.99-21.96,14.93-33.62,20.44,10.72-8.65,21.61-14.68,33.62-20.44Z"/>
      </g>
    </g>
    <g>
      <path class="cls-3" d="M646.93,193.85c1.72,2.09.83,2.77-1.67,2.57-5.28,2.34-10.09,5.09-14.4,9.48l-88.33-.19,22.57-45.46-25.57,42.82-35.86,22.66c3.12,3.45,7.42,7.54,9.9,11.92l-21.46,17.42.65,18.38-22.93,33.58-125.64-12.83-15.97-15.56-13.37-38.35,43.96-88.28-46.11-32.89-1.99-19.49-.91-14.19-.52,14.49-25.09-4.78-6.2,19.06-13.79-6.97c-3.51,2.94-8.13,4.5-10.71,8.09l-2.9,10.67c-2.38-2.51-6.51-5.35-8.14-8.96l-7.53-55.73c-1.96-1.43-5.13-1.84-5.97-3.93l-4.93-12.32-10.87-2.42-6.08-17.49,22.4,4.8c6.57-.34,14.12-2.11,20.03-5.08l34.84-17.49c1.1-.55,3.29.61,3.59,1.46.85,2.39-3.3,6.25-1.4,7.99l8.71,7.96-11.11,23.75,24.22,35.84,41.03-8.92,29.34,3.1-3.43-10.43,21.41-3.45c-.45,4.33-1.88,6.97-3.19,10.4l28.16,16.5,16.96,46.02c1.78.52,3.96.91,4.28,2,1.07,3.67-1.55,14.34,4.42,14.39l44.98.39c.78.68,1.81,2.08,2.75,2.46l18.86-.31c1.88-.03,5.41-1.53,6.85-2.6l16.26-12.15,32.32,10.1c4.48,1.4,9.28,6.66,11.54,10.7s3.97,8.48,6.14,11.92c-.22,6.09-3.91,11.91-2.34,18.7l4.01-16.47c.85-.41,2.51.22,3.91,1.01l-3.97,20.47,34.64-13.97,23.63,9.59Z"/>
      <g>
        <rect class="cls-270" x="407.2" y="240.21" width="2.7" height="106.99" transform="translate(90.27 683.42) rotate(-86.47)"/>
        <path class="cls-274" d="M359.34,144.44c-11.92-8.51-24.22-16.56-34.92-27.47l35.53,26.18c.25.49.53.69.73.82,1.37.87,2.67,1.56,3.8,3.3-2.14.45-3.23-.92-4.23-2.28-.63-.1-.8-.36-.91-.55Z"/>
        <path class="cls-128" d="M432.19,141.07c-6.45-14.44-12.09-29.18-14.86-44.56,6.64,14.87,11.05,29.17,14.86,44.56Z"/>
        <path class="cls-192" d="M533.77,198.14l20.51-34.75c-5.63,12.45-11.67,23.87-20.51,34.75Z"/>
        <path class="cls-90" d="M332.86,273.97c-4.59-10.16-6.71-20.81-7.91-31.83,4.33,10.65,6.41,20.79,7.91,31.83Z"/>
        <path class="cls-287" d="M509.2,164.25c-6.51,2.27-12.26,1.3-18.01-.21,6.69-1.91,12.28-.88,18.01.21Z"/>
        <g>
          <path class="cls-171" d="M246.32,110.55c-1.43-7.53-2.62-15.14-2.4-23.76,2.27,7.3,4.72,14.69,2.4,23.76Z"/>
          <path class="cls-266" d="M281.58,15.91c-5.12,4.99-9.83,9.71-16.49,12.75,8.19-11.07,20.04-16.2,16.49-12.75Z"/>
          <path class="cls-192" d="M254.18,33.46c-5.82,2.07-11.9,2.82-18.48,2.07,5.82-2.9,11.36-3.14,18.48-2.07Z"/>
        </g>
      </g>
    </g>
    <g>
      <path class="cls-60" d="M442.08,415.48c-1.75,3.93-9.19,10.5-16.48,8.24l6.7-7.9c-.36-.33-.66-.61-.7-.63l-9.75,7.73c-11.44,3.45-27.07-3.15-27.32,5.33l-.47,15.36c-.07,2.14.97,4.34,2.07,5.27,1.64,1.38,3.57,1.46,5.89,1.22l-4.4,5.21,1.37,15.59-10.33-.49,5.13-15.06-28.11,4.52-22.94-8.63-12.64,6.2c-3.22-8.44,4.57-6.91,11.9-12.79-4.63-.6-8.54,2.88-12.31,3.93-1.77-1.98-3.59-4.48-7.41-4.49l-15.05-.04-.07-15.06-35.84-4.56c-.31-.9-.15-2.74.06-3.14.57-1.06,1.85-.05,2.82-.04l75.72.28c4.32-4.25,8.49-9.75,9.01-15.97s-6.03-10.55-11.92-10.57l-64.59-.22c-.75,0-1.4-2.37-1.65-3.39-.73,1.44-1.04,3.14-2.27,3.5-1.94.56-5.72.72-5.86-1.08l-.47-6.12-10.65-13.79,19.38-22.63-3.22-10.89,3.7-17.76-33.08-.7-.13-40.76,58.91,3.86,8.31-23.48,7.8,20.9,18.51,17.75,129.18,12.98-13.19,23.04.57,43.76,9.3-7.76,3.89,9.62,15.11-4.76,14.9,15.39,44.51-7.27-1.61,23.9-37.57.48c-3.37.04-6.69,1.33-8.52,3.25-5.75,6.03-1.45,16.56,5.96,22.18l22.96.99c-.52,6.67-11.4,4.48-11.69,7.5l-3.5,36.2-8.18,8.65-43.16-.56-13.98,11.08c-2.47,1.95-9.72,1.56-12.74.03l-22.08-11.19-6.51-14.08-2.18-16.3c5.79-6.33,8.57-8,17.58-6.56l-5.75,8.57,9.94-8.68,55.33-.53c6.81-4.21,11.96-14.42,8.1-21.1-1.53-2.64-5.54-4.83-9.84-4.9l-38.57-.57,4.78-5.53,13.81-36.7-.84-.9-15.62,35.07Z"/>
      <g>
        <path class="cls-115" d="M434.55,321.05c-40.82-3.81-80.67-9.92-119.6-16.84,41.37,3.68,80.42,9.98,119.6,16.84Z"/>
        <path class="cls-320" d="M450.6,362.15c-2.16-.31-2.14-2.04-2.2-4.07l-.79-27.05,1.75-.04,1.23,31.15Z"/>
        <path class="cls-145" d="M499.46,481.81c-11.44.05-22.84.71-34.06-2.26,11.68-.51,22.72-.76,34.06,2.26Z"/>
        <path class="cls-23" d="M454.03,415.5c1.19-11.24,4.19-21.3,9.11-31.83-1.63,11.06-4.27,21.58-9.11,31.83Z"/>
        <path class="cls-264" d="M256.48,312.22c.03,1.52-1.03,2.44-2.18,2.58l.42-25.96,1.52,9.9.24,13.48Z"/>
      </g>
    </g>
    <g>
      <path class="cls-247" d="M713.97,333.52c1.94,2.47,1.9,3.8-.11,3.98-.19,6.5-3.22,9.71-1.84,16.97l-11.84,2.18c2,4.12,3.37,7.59,2.4,11.3-6.21-1.01-10.88,1.15-13.46,4.78-3.29,4.63-.2,10.04,1.23,14.3l-14.94,21.94-3.6,55.32-8.81,31.74c-1.64,2.3-5.95,5.87-8.57,6.37-2.91.55-5.85-3.12-7.36-4.97l-3.16-14.29,24.26-24.59-32.14-10.05-32.17-28.51-6.86,3.45-.31-8.22c-.12-3.28-2.67-6.02-5.97-6.02l-42.96-.08-.12-22.87c.8-.71,2.64-2.3,2.5-3.34l-4.4-31.97,11.67-12.61,18.5,9.44,25.77-10.34,1.94-13.69c10.15-.2,20.28,2.63,29.48.81l19.11-11.82,10.69,14.52,23.34-12.89,27.74,19.15Z"/>
      <g>
        <path class="cls-52" d="M550,351.33c3.27,8.46,5.87,23.53,4.67,32.78-2.31-10.66-4.56-21.1-4.67-32.78Z"/>
        <polygon class="cls-229" points="664.57 447.56 664.19 421.82 666.05 410.9 666.2 437.9 664.57 447.56"/>
        <path class="cls-185" d="M615.06,417.67c-.8-1.02-2.05-1.67-2.87-4.12,1.62-.49,2.71,1.4,3.4,2.88.27.58.57.87.71,1,6.26,6.06,11.58,12.99,16.63,20.65l.67.77c.82,1.01,2.06,1.66,2.88,4.12-1.62.49-2.41-1.66-3.4-2.85l-1-1.2-16.17-20.28c-.49-.62-.7-.84-.84-.95Z"/>
        <path class="cls-19" d="M705.14,338.3c-6.88-4.55-12.88-10.13-18.19-17.71,6.71,4.45,12.97,9.98,18.19,17.71Z"/>
        <path class="cls-289" d="M603.93,344.16c-7.22,4.1-14.15,6.26-21.91,8.29,6.63-4.65,14.2-7.69,21.91-8.29Z"/>
      </g>
    </g>
    <g>
      <path class="cls-60" d="M519,537.68l-1.98-11.76,53.42-.34c3.65-.02,12.95-12.37,9.33-19.77-1.89-3.87-5.53-6.28-10.51-6.28l-112.2-.05c1.31-2.24,3.63-5.25,6.5-5.27l41.85-.38,11.6-12.13,1.48-36.13c.14-3.48,9.35-1.74,11.82-9.8l63.07-.26c2.83-4.05,5.81-7.22,10.27-8.15l30.03,27.18,25.91,7.1-11.33,12.25c-2.25,2.44-6.41,5.23-7,8.91l3.44,14.88-16.53,1.21-1.08,25.11-16.78,13.62-1.57,13.13c-9.23,1.65-5.94,12.68-16.54,9.58-2.11.88-3.46-1.16-.38-2.5l-30.28,11.45c4.33,1.16,7.35-1.3,11.65-2.82.75,1.34,0,5.53-1.48,6.7l-16.63,3.6-31.27,3.63c-.18-4.35-1.43-7.62-4.56-10.73l6.11-16.93-9.65-6.21-4.77-20.14c.39-.91,3.42-1.03,3.65-.2l3.29,11.95,1.15-.44Z"/>
      <path class="cls-91" d="M522.87,479.47c-1.29-7.9,0-15,.11-23.23.03-2.52-1.1-5.3,2.26-6.52-1.08,10.2.5,19.37-2.37,29.76Z"/>
      <path class="cls-274" d="M624.58,456.55c-8.32-6.82-14.58-14.76-19.81-24.02,7.69,7.38,14.53,14.59,19.81,24.02Z"/>
    </g>
    <g>
      <path class="cls-140" d="M521.05,221.94c2.15-1.12,2.67-.29.94,1.46l11.88,9.72-9.21,32.8,9.64,17.05,11.42,1.79-15.03,18.76,22.38,31.06-13.76,14.05,4.35,30.79-40.85,6.54-14.61-14.94-14.47,4.47-4.11-9.77-7.63,5.4-1.69-33.54c4.16-10.03,8.88-19.43,14.95-28.38l23.15-34.14-1.01-18.15,23.45-18.97-10.1-11.52c3.2-2.86,6.52-5.18,10.34-4.46Z"/>
      <path class="cls-182" d="M469.9,330.09l30.31-44.6c-8.64,16.06-18.81,30.42-30.31,44.6Z"/>
      <path class="cls-129" d="M537.91,374.65c-8.81,3.11-18.49,3.86-28.04,3.45l28.04-3.45Z"/>
    </g>
    <g>
      <path class="cls-165" d="M377.01,590.72c.21,7.45-6.7-3.03-14.95-8.01l-7.38-.18-8.27-30.71-35.57-6.26-.51-26.22,3.68-.02c.5,6.18-.44,12.18,1.28,18.15l1.42-18.36,54.82-.6c3.22-.04,12.06-12.8,9.19-19.66-1.25-2.98-4.99-6.29-9.27-6.3l-57.34-.18,6.49-21.52c2.93-.15,5.37-.55,7.11-2.05,1.56-1.34,1.38-4.97,2.01-6.88l11.92-5.25c8.12,2.86,15.44,8.62,24.07,9.76l20.41-3.48c.17,3.4-1.42,7-2.47,10.81l15.07-.16c4.05,5.64,4.83,13.71,9.76,18.47l18.61,10.64-.37,13.7-19.99,21.37c-1.04,1.11.28,2.47,1.36,1.39l18.52-19.24c1.27,2.85,2.73,4.67,4.83,6.28l-30.21,27.44c-2.96,2.69-3.58,5.77-5.66,8.71-4.79,6.76-12.9,10.62-18.88,16.37l.34,12.01Z"/>
      <path class="cls-116" d="M356.7,472.49c-5.53-1.63-10.05-4.61-14.75-8.26,5.34,1.07,10.47,3.43,14.75,8.26Z"/>
    </g>
    <g>
      <path class="cls-3" d="M645.26,196.42c-.05-.92.83-2.03,1.67-2.57l15.79,6.4-2.96,25.03,6.6,39.47c2.81,2.73,5.33,4.54,7.04,7.69-2.38,3.53-6.48,6.23-6.98,10.09l-1.97,15.19-33.07,20.88-33.83-1.61-1.38,16.16-19.48,7.83-16.66-8.64c2.21-10.43-1.53-21.52,2.37-31.38,3.04-7.68,9.93-16.66,15.57-22.4,8.64-5.27,18.05-9.21,27.3-12.69l23.05-.81-3.08-21.45,2.24-11.95c5.92,1.51,8.56-1.95,11.17-6.17,2.39-3.86,4.34-7.45,2.76-12.34-.93-2.88-3.75-5.8-8.3-7.16l12.16-9.55Z"/>
      <path class="cls-226" d="M655.84,298.77c-9.33,6.22-18.49,10.02-28.5,13.74,9.06-5.8,18.27-11.3,28.5-13.74Z"/>
      <path class="cls-37" d="M567.66,302.84c1.44,7.61-.65,17.47-2.27,25.09-1.35-8.98.33-16.98,2.27-25.09Z"/>
      <path class="cls-126" d="M656.25,206.72c-.29,6.52-.14,13.24-2.44,16.42-1.07-6.25-.4-11.52,2.44-16.42Z"/>
    </g>
    <g>
      <path class="cls-278" d="M432.2,717.18l-11.53,15.88-29.49,24.3c-3.91,8.2-6.98,16.33-13.7,21.66l7.08-15.23c-20.33-18.76-40.57-37.16-62.1-54.82-1.02-.84-2.89-.12-3.97-2.41l34.55-33.56,28.66-15.13,27.22,10.94c3.46,1.39,6.13,3.65,8.55,6.52l12.84,15.21-12.55.48c-4.55.17-7.79,3.14-9.47,6.53-2.08,4.21.14,8.04,1.99,11.89,2.9,6.04,7.29,9.33,15.38,7.04l-5.22,11.06,6.69-8.55c1.36-1.75,3.15-2.73,5.05-1.81Z"/>
      <path class="cls-29" d="M373.9,745.71c-10.05-6.51-19.52-13.51-27.8-22.76,9.98,6.59,19.49,13.22,27.8,22.76Z"/>
      <path class="cls-149" d="M327.39,705.81l25.22-26.72c-7.73,10.43-15.72,18.84-25.22,26.72Z"/>
    </g>
    <g>
      <path class="cls-3" d="M274.94,351.08l-14.09,22.09-71.7-28.48-12.92-19.5.68-31.38c2.13-.2,4.34.21,5.75-.87l20.22-15.57c1.78-1.37.97-5.46,1-7.42l9.69-5.22,23.85,15.24,9.3,1.35-4.77,45.98,31.81,1.46c-2.86,9.51-3.34,12.89,1.17,22.33Z"/>
      <path class="cls-105" d="M235.66,321.56c-1.96-4.66-.53-9.36.26-14.24l3.02-18.54c.22,11.28-.92,21.6-3.28,32.78Z"/>
      <path class="cls-98" d="M254.17,366.29c-9.07-2.79-18.37-6.04-26.99-11.54,9.43,2.34,18.11,5.7,26.99,11.54Z"/>
      <path class="cls-250" d="M179.56,321.86c-.27-6.69-.34-14.06,3.27-21.22-.36,6.69-.37,13.24-3.27,21.22Z"/>
    </g>
    <g>
      <path class="cls-232" d="M473.39,625.05c-4.82,3.65-3.54,7.34-4.52,13.14l-25.36-4.06c-3.08-.49-7.68-1.68-9.99.5l-12.35,11.71-36.72-7.02-4.44-17.59c-3.22-1.26-6.43-.93-10.88-1.47l5.39-24.37c6.74-3.04,3.24-12.57,7.74-15.66l18.11-12.41c2.21-1.52,5.78-.41,8.37,1.15-2.12,1.5-1.61,5.15-2.75,7-1.17.73-5.19-1.39-6.08,1.17l5.27.87c3.56.59-1.28,15.59,6.56,15.68l44.1.56c1.91.02,1.21,5.01-.41,6.15-8.8,6.2-1.04,20.13,3.97,23.18,3.68,2.24,8.34-.27,13.98,1.48Z"/>
      <path class="cls-308" d="M418.08,638.52c-10.12-.03-18.14-3.25-26.84-6.89,9.39.85,18.29,3.53,26.84,6.89Z"/>
      <path class="cls-157" d="M458.89,629.63c1.73.33,3.61,1.43,4.77,2.86l-23.33-5.13c-.09-.49-.44-1.13-.42-1.33l18.97,3.61Z"/>
    </g>
    <g>
      <path class="cls-3" d="M521.99,223.4c.03-.55-.32-1.34-.94-1.46-.58-.97-.32-2.26.9-3.03l14.43-9.11.32,16.39c.1,4.92,3.75,5.81,7.81,5.84l72.24.41c-.39,3.14-1.52,5.08-.61,8l2.32-8.1c1.95-.39,3.63-.38,5.61-.12l-2.48,10.45,1.64,17.9-18.41.02c-10.26,4.72-22.13,7.46-31.27,14.59-7.15,5.58-12.98,15.99-17.5,23.67l-2.07,26.12-16.22-21.33,18.16-22.18-17.96-2.2-9.09-13.25,7.21-33.52-14.1-9.07Z"/>
      <path class="cls-18" d="M599.62,256.62c-9.51,4.5-18.55,9.3-30.08,11.56,9.16-4.9,18.94-9.45,30.08-11.56Z"/>
    </g>
    <g>
      <path class="cls-3" d="M703.69,276.51c-2.76,3.18,0,13.37-3.25,16.78s-7.57-6.8-13.18-8.79c-5.24-1.86-10.95-.5-16.48-1.08l7.86-11.61-8.35-9.44-9.38-39.04,3.38-23.07,22.66-2.48,10.35,10.52c3.24,3.3,3.86,8.74,8.35,11.17,3.06.13,5.02,1.65,7.08,3.66l20.17,19.71-29.21,33.67Z"/>
      <path class="cls-90" d="M718.13,238.88c-10.83-9.02-19.61-20.23-28.23-32.09,10.88,9.45,19.44,20.04,28.23,32.09Z"/>
    </g>
    <g>
      <path class="cls-31" d="M513.22,567.67l-90.57-.21-20.2-2.07c-.82-3.57.86-5.29,3.08-7.36l34.75-32.27,64.07-.05,5.25,22.85c.76,3.32,4.8,4.81,8,6.3l-4.38,12.81Z"/>
      <path class="cls-33" d="M418.6,554.51c6.31-7.74,13.37-14.45,22.39-19.47-6.28,7.9-13.18,14.21-22.39,19.47Z"/>
      <path class="cls-4" d="M505.7,550.97c.56,1.67-.27,2.75-1.73,2.12l-3.62-24.34c.23-.12.78-.1.96.5l4.4,21.72Z"/>
    </g>
    <g>
      <path class="cls-3" d="M71.88,314.55l1.61-33.71-37.03,11.47-29.48-42.08c.4-3.56.76-6.2,2.81-9.42l63.36,20.88,60.51,38.52-26.09,15.56-35.68-1.22Z"/>
      <path class="cls-301" d="M88.65,276.05c-.94-.4-1.9-.74-2.51-2,1.27-.28,2.08.2,2.84,1.12.41.33.73.51,1,.53,9.2,6.09,18.82,11.71,27.3,19.74-10.38-4.82-18.9-11.71-27.96-18.43-.15-.55-.47-.88-.67-.97Z"/>
      <path class="cls-11" d="M78.76,285.87c-.84,8.29-.7,16.05-3.18,23.73-.6-10.96.96-20.9,3.27-31.6,1.79,2.42.19,5.16-.09,7.87Z"/>
    </g>
    <g>
      <path class="cls-259" d="M458.98,127.1c-2.91,3-9.19.6-13.14,1.28-.95.28-1.14,2.6-2.48,4.1l-16.23-44.4-28.79-13.9c-1.92-1.64-.9-7.26.15-9.2l11.31,6.18,36.88-1.08,19.25-29.23,11.21,39.04,12.74,7.13c.49,1.36-1.9,3.24-3.58,3.25l-18.36.04c-3.86,0-7.23,2.72-8.56,5.01-3.93,6.76,1.11,16.76,9.23,21.84l-9.64,9.94Z"/>
      <path class="cls-296" d="M464.97,51.01c3.33,6.44,4.92,24.17,5.12,23.5-.14.47-1.06.92-1.62.55-.17-.11-4.13-15.72-3.5-24.05Z"/>
      <path class="cls-47" d="M444.96,127.13c-3.2-7.37-4.01-14.34-4.81-21.97,3.26,6.94,5.7,14.36,4.81,21.97Z"/>
    </g>
    <g>
      <path class="cls-248" d="M461.81,688.4c-3.34,5.12-10.28,1.66-13.47-.33l-15.6-4.28-16.51-17.9c-10.28-5.79-22.67-6.2-34.27-9.33l2.45-15.86,39.39,12.65,12.96-13.88,31.37.38c.86.04.93,3.41.1,3.58-4.37.86-7.9,3.28-9.35,6.58-1.91,4.34-.24,8.36,1.96,12.22,1.95,3.41.26,7.24.67,11.57,1.7-1.78,1.31-4.21,1.11-6.91,5.61-1.38,2.55,16.35-.81,21.5Z"/>
      <path class="cls-281" d="M432.09,675.44c-4.18-3.28-7.69-7.31-9.58-12.92,4.18,3.5,7.41,7.13,9.58,12.92Z"/>
    </g>
    <g>
      <path class="cls-95" d="M753.83,313.63c-6.45.08-9.51,4.87-10.61,10.48-.52,2.67-5.45,2.91-7.41,1.25-3.18-2.69-6.89-6.95-11.16-7.42l-11.4,7.47-26.36-18.34-23.53,14.78-9.41-10.5,15.09-10.25,1.28-16.37,13.47,3.17,13.24,12.88c3.7-.2,6.75-3.1,10.21-4.14l12.06,5.56,10.16-5.88,4.59,16.21,25.36-5.45c2.49-.54,4.7,3.86,4.74,5.81-3.58,1-7.01.7-10.32.75Z"/>
      <path class="cls-122" d="M680.29,304.33c-4.82,4.47-10.42,8.11-17.23,10.55,4.91-4.65,9.9-8.59,17.23-10.55Z"/>
    </g>
    <g>
      <ellipse class="cls-242" cx="287.12" cy="151.29" rx="4.28" ry="4.29"/>
      <g>
        <path class="cls-57" d="M277.6,155.01l4.76,8.98-76.55.07c-2.01,0-3.49-1.94-3.5-3.64l-.1-14.15c-.01-1.75,1.58-3.65,3.6-3.65l74.76.12c-3.07,3.84-5.29,7.88-2.96,12.26Z"/>
        <g>
          <path class="cls-1" d="M222.98,158.35c-1.68.3-2.09-.93-2.23-1.66-.2-1.02-.68.42-2.43,2.1l-1.24-4.11c-1.38,7.15-4.18,3.76-2.46-5.78.08-.45,2.1-.56,2.35-.19s.69.87.75,2.34c-.54,2.32,2.61,2.41,2.15.06-.08-1.47.36-2.01.62-2.37s2.25-.3,2.35.13c.61,2.89.66,6.14.14,9.47Z"/>
          <path class="cls-148" d="M240.97,158.74c-3.42-1.13-3.47-3.26-4.46-5.23-1.6,2.02-.82,3.52-.98,4.67h-1.41c-.74-2.96-.45-6.14-.26-9.76,3.41.57,3.59,3.53,5.06,5.62.3-2.28-.86-4.5,1.84-5.78l.21,10.47Z"/>
          <path class="cls-314" d="M251.02,158.36c-2.91.22-3.16-1.81-3.98-2.09-1.31-.44-2.42.83-4.24,2.45-.76-3.79.98-7.65,3.8-10.84l4.42,10.48Z"/>
          <path class="cls-309" d="M232.82,158.29c-2.88.22-3.2-2.02-4.03-2.17-1.3-.23-2.18,1.76-4.5,2.52.15-3.83,1.57-7.2,3.99-10.96,2.79,3.72,3.17,6.89,4.54,10.6Z"/>
          <path class="cls-268" d="M266.71,153.78c2.76,1.66-.26,4.63-2.14,4.78-2.09.17-4.82-.34-3.66-3.93,1.49,1.65,2.95,2.66,4.82,1.7-.74-2.46-3.92-2.46-4.66-3.48-1.63-2.36.53-4.24,2.41-4.3s3.7.31,3.73,3.1l-3.66-1.42-1.03,1.02,4.2,2.53Z"/>
          <path class="cls-297" d="M258.38,148.52c.34,2.88.79,5.61-.22,8.43-.59,1.65-4.16,1.77-5.84,1-.23-3.36-.62-6.52.39-9.55.47,5.87,1.12,10.11,3.23,8.73,1.7-1.11-1.29-6.89,2.44-8.62Z"/>
        </g>
      </g>
    </g>
    <g>
      <path class="cls-305" d="M768.4,283.39c-.99,1.09-1.17,2.78-1.39,4.84-6.37,1.85-9.89,6.75-8.4,13.77l-19.99,3.59-6.04-18.24-14.43,10.35-10.85-3.74,2.47-15.61,6.13-7.95c4.67,2.09,8.45,1.97,13.22-.41l-.29,8.11,17.22,8.9,10.04-8.76c3.33-1.23,9.23-1.11,12.25.35,2.69,1.3,4.67,5.67,5.48,8.16.63,1.94-2.22,2.5-3.22,1.95-1.29-.71-1.82-1.87-2.21-5.29Z"/>
      <path class="cls-139" d="M742.45,299.9c-2.79-3.19-1.74-6.92-1.14-9.92,1.46,3.43,2.43,6.3,1.14,9.92Z"/>
    </g>
    <g>
      <path class="cls-117" d="M745.42,278.69c-3.85.37-7.43-2.95-10.53-4.33l1.12-13.69-10.3,6.63c-2.74,1.76-5.81,2.9-8.9,1.45l16.59-25.11,33.5,11.84c2.08.74,4.66,6.04,3.66,7.99-1.67,3.25-4.23,6.24-3.34,10.93l-13.32-1.44-8.49,5.71Z"/>
      <path class="cls-152" d="M764.73,259.58c-8.56-1.25-16.4-3.5-24.1-8.11,8.75.65,16.25,4.53,24.1,8.11Z"/>
    </g>
    <g>
      <ellipse class="cls-20" cx="461.42" cy="608.84" rx="4.25" ry="4.26"/>
      <g>
        <path class="cls-42" d="M550.84,602.33c1.58,6.09,1.75,19.67-3.13,19.66l-82.12-.12c6.13-8.37,8.7-14.74,2.3-21.47h76.63c2.06,0,5.65-.66,6.31,1.93Z"/>
        <g>
          <path class="cls-65" d="M495.27,606.04c3.29,2.04,2.25,6.15,1.36,8.61-.63,1.73-2.93,1.79-4.17,1.34-2.87-1.05-3.74-7.85-1.49-10.26l1.79,9.1c3.95-1.26,2.74-5.02,2.51-8.77Z"/>
          <path class="cls-265" d="M539.23,616.18l-4-2.17c-1.02-.55-2.07,1.68-4.46,2.57.56-3.88,1.65-7.19,4.04-11.17,2.92,3.41,3.6,5.76,4.42,10.78Z"/>
          <path class="cls-94" d="M484.99,607.96c-2.59.27-3.33,4.49-.91,6.46,1.5-.66,2.65-1.62,4.37-1.59-.13,3.21-2.64,3.55-4.62,3.02s-3.13-2.54-2.99-5.01c.14-2.33,1.32-3.77,2.92-4.38s4.3-.38,4.55,2.47c.07.87-2.61.03-3.32-.96Z"/>
          <path class="cls-124" d="M517.63,606.81c-4.63,3.35-.58,13.25-4.53,7.65.66-3.43.46-6.13-2.15-7.66,2.53-.57,4.2-.57,6.68.01Z"/>
          <rect class="cls-124" x="518.61" y="606.46" width="2.16" height="9.72"/>
          <rect class="cls-124" x="503.99" y="610.17" width="9.72" height="2.31" transform="translate(-105.1407 1116.9568) rotate(-89.6989)"/>
          <g>
            <path class="cls-86" d="M506.47,616.13c-2.73-.19-3.19-2.82-4.57-4.4-1.55,3.03-.41,5.13-2.68,4.08l-.05-9.21c2.8-1.21,6.62-.49,7.22,2.25.25,1.12-1.06,2.32-1.28,2.95-.33.92,1.2,2.02,1.37,4.33Z"/>
            <path class="cls-146" d="M501.38,608.53c.98-1.32,2.51-.5,2.84.04.51.83-.18,1.49-.7,1.8-1.29.77-3.36-.19-2.13-1.84Z"/>
          </g>
          <g>
            <path class="cls-265" d="M530.08,612.88c.46,3.26-6.09,4.62-6.78,2.54-1.01-3.06-.31-6.11-.23-8.71,1.73-.44,4.65-.78,5.87.21.81,1.17.84,3.83,1.14,5.96Z"/>
            <path class="cls-198" d="M524.25,608.34c.49-1.45,2.37-1.01,2.96-.36.39.44,1.3.75.62,1.74-.51.74-1.4,1.24-2.13,1.03-.57-.17-1.92-1.06-1.46-2.42Z"/>
            <path class="cls-25" d="M528.22,613.09c.3,1.25-4.09,1.92-4.26-.24-.09-1.2,3.67-2.16,4.26.24Z"/>
          </g>
        </g>
      </g>
    </g>
    <g>
      <ellipse class="cls-75" cx="505.62" cy="420.19" rx="4.15" ry="4.16"/>
      <g>
        <path class="cls-27" d="M587.1,433.46l-51.17-.05-25.45-.39,4.2-7.68c2.5-4.56,1.14-9.04-2.13-13.56l77.26-.03c2.89,0,4.42,1.83,4.33,4.64l-.46,14.81c-.06,1.97-4.11,2.26-6.58,2.26Z"/>
        <path class="cls-163" d="M578.46,416.7c2.72,3.95,3.39,6.68,4.35,10.76-2.63-.26-3.12-1.73-4.6-2.74-2.19,2.24-3.95,2.89-6.85,2.43-.03-3.56-.47-6.55.43-9.46h1.44c.52,2.56-.72,5.28.89,8.83,1.26-3.2,1.22-6.22,4.33-9.83Z"/>
        <path class="cls-188" d="M553.75,420.6c2.7.67,4.54,1.56,4.96,2.91.68,2.19-1.27,3.76-2.93,3.91-1.93.18-4.36-.78-3.51-3.75,1.45,1.39,2.73,2.81,5,1.27-1.29-1.87-4.68-2.35-5.18-3.93-.78-2.49,1.44-3.36,2.71-3.4,1.68-.05,4.04.12,3.39,3.27-.98-.66-2.54-2.81-4.44-.27Z"/>
        <path class="cls-135" d="M570.53,426.25c-1.62,1.62-3.26,1.32-6.15,1.18-1.11-2.97-1.12-7.1.34-10.73,2.54,2.36.61,5.32,1.11,7.08.56,1.97,2.75,1.84,4.7,2.47Z"/>
        <rect class="cls-138" x="560.69" y="417.45" width="1.08" height="9.72"/>
        <g>
          <path class="cls-55" d="M551.44,427.03c-2.47.91-3.31-1.14-4.53-2.29-2.16,1.79-3.55,2.87-6.07,2.56-1.57-.19-2.27-3-4.75-4.4.08,1.63.66,3.78-1.79,4.6-.39-3.02-.63-6.71.21-9.39.81-1.5,6.9-.51,6.62,1.3-.46,2.91-2.04,5.23,1.21,6.98,1.62-3.51,1.86-6.39,4.33-9.65,2.7,3.17,3.06,5.83,4.78,10.28Z"/>
          <path class="cls-97" d="M536.13,419.81c.27-.37,1.83-.33,2.35-.2.44.11,1.06.77.61,1.59-.52.96-1.21.54-1.64.65-.91.23-2.33-.65-1.32-2.04Z"/>
        </g>
        <g>
          <path class="cls-5" d="M532.14,425.59c-.36,2.21-5.07,2.19-6.65,1.33l-.03-9.07c1.78-.33,4.9-.7,6.36.62.51,1.45.73,4.59.31,7.12Z"/>
          <rect class="cls-44" x="527.22" y="422.91" width="3.66" height="2.8" transform="translate(-50.67 72.38) rotate(-7.47)"/>
          <path class="cls-181" d="M527.5,419.81c.27-.36,1.79-.35,2.35-.21.43.11,1.05.77.6,1.58-.53.96-1.18.53-1.6.65-1.12.31-2.31-.71-1.35-2.02Z"/>
        </g>
      </g>
    </g>
    <g>
      <ellipse class="cls-58" cx="570.51" cy="510.31" rx="4.24" ry="4.24"/>
      <g>
        <path class="cls-42" d="M561.52,515.44l4.46,7.86-135.3-.1c-1.58-6.92-1.35-13.51-.24-20.14,4.88-2.02,9.6-1.05,14.92-1.06l118.55-.1c-3.48,3.75-5.15,8.69-2.39,13.54Z"/>
        <g>
          <path class="cls-227" d="M459.35,508.16c-.41,7.21,1.36,9.72,5.29,7.54.67-.08.94.27,1.13.63,1.17,2.24-7.45,1.98-15.21.96l1-3.13c-1.29-4.34.68-6.29,5.91-5.85l1.88-.15Z"/>
          <path class="cls-38" d="M534.58,517.74c-2.78-.99-2.99-3.56-4.83-5.39-.11,2.38.5,4.12-1.39,5.71-1.17-3.73-.84-6.77-.43-10.62,3.17,1.02,3.22,3.26,4.17,5.38,1.86-1.89,1.02-3.54,1.03-4.7l1.29-.29c.87,2.72.93,5.74.16,9.9Z"/>
          <path class="cls-213" d="M486.36,517.82c-2.15-.99-1.53-2.83-1.44-3.53.13-1.17-2.43-1.77-3.17-.29-.45.89.51,3.54-1.98,3.75-.23-3.59-.78-6.92.52-10.2,1.73,1.17,1.39,2.63,1.54,3.28.19.82,2.28,1.19,2.75.53.38-.54-.59-2.41,1.61-3.64,1.11,3.08.84,6.63.17,10.1Z"/>
          <path class="cls-183" d="M548.94,513.51c-3.1-1.45-3.53,3.08-.21,2.21,2.5-1.37,3.13,2.5.51,1.68-1.81.09-4,.41-4.65-.28-.28-.3-.71-6.96-.06-8.42.45-1,2.71-1.29,4.6-.84,2.56-.66,2.03,2.8-.38,1.61-2.93-1.07-3.15,2.8-.4,2.26,1.34-.59,2.12,0,2.31.33s.12,1.91-1.73,1.46Z"/>
          <path class="cls-41" d="M509.22,516.82c-.97-.17-1.01-.52-.15-1.05,1.77-1.42,2.98-2.85,4.52-5.92-1.4-.25-2.7,0-3.92-1.57,2.73-.56,4.29-.41,7.31-.08-1.29,3.17-2.97,4.7-4.96,7.39,2.22.2,3.71-.31,5.59.99-2.96,1.52-5.85.89-8.4.24Z"/>
          <path class="cls-244" d="M457.47,508.31l-5.6,2.13,5.65,1.92c-1.69,1.59-2.99,1.1-5.07,1.03.22,3.11,2.49,2.49,4.9,2.7-1.92,1.53-4.62.61-6.78,1.2l.06-9.22c2.61-.58,4.77-.23,6.84.24Z"/>
          <path class="cls-300" d="M540.68,515.54c.8,1.86-1.76,3.21-1.92.55.91-3.76.1-6.51-3.15-7.52,3.01-.98,5.09-.93,8.15-.09-2.43,1.47-3.91,2.86-3.08,7.06Z"/>
          <polygon class="cls-253" points="509.08 515.78 509.22 516.82 506.65 517.88 507.09 508.15 508.53 508.16 509.08 515.78"/>
          <path class="cls-272" d="M464.65,515.7c-.65,1.16-2.42,1.51-4.95,1.09-.86-2.64-.35-5.78-.34-8.63,2.12-.16,0,6.47,1.61,7.44.84.51,2.75.2,3.68.1Z"/>
          <g>
            <path class="cls-238" d="M448.8,515.73c-1.05,2.53-5.31,1.97-6.94,1.38-.31-3.37-.45-5.88.11-8.97,1.69-.7,4.93-.86,5.95.63.88,1.29,1.63,5.15.88,6.96Z"/>
            <path class="cls-275" d="M444.37,513.88c.35-.46,1.81-.46,2.43-.3.43.11,1.04.76.6,1.58-.52.96-1.23.54-1.67.66-.78.21-2.18-.86-1.36-1.94Z"/>
            <path class="cls-216" d="M444.12,509.95c.81-1.43,2.03-.65,2.23-.15.25.63.03,1.28-.55,1.63-.42.25-1.87.17-1.68-1.48Z"/>
          </g>
          <g>
            <path class="cls-209" d="M522.15,517.53c-3.48.21-4.6-3.47-4.42-5.54.28-3.34,2.78-4.93,6.24-3.8,2.25.74,2.32,2.93,2.27,4.82s-1.02,4.34-4.08,4.53Z"/>
            <circle class="cls-99" cx="522.09" cy="512.55" r="2.89"/>
          </g>
          <g>
            <path class="cls-295" d="M505.55,517.48c-2.53-.24-3.04-2.64-4.79-4-.42,1.75-.35,2.97-2.11,3.86-.67-2.64-1.19-6.27.02-8.79.96-1.98,7.13-.57,6.59,1.51-.69,2.64-2.01,3.18.29,7.43Z"/>
            <path class="cls-121" d="M500.54,509.45c.27-.36,1.73-.36,2.35-.2.44.11,1.04.76.6,1.58-.52.96-1.23.54-1.66.66-.81.21-2.34-.63-1.29-2.04Z"/>
          </g>
          <g>
            <path class="cls-187" d="M490.56,517.29c-2.83-1.75-3.01-6.94-.81-8.62,2.07-1.58,4.84-.82,6.23.97.96,1.24,1.18,3.81.16,5.64-.74,1.33-2.98,3.62-5.58,2.01Z"/>
            <circle class="cls-21" cx="492.43" cy="512.54" r="2.89"/>
          </g>
          <g>
            <path class="cls-62" d="M470.68,517.74c-3.31.04-4.5-2.89-4.53-4.73-.04-2.92,1.54-5.51,4.98-5.06,2.9.38,3.64,2.76,3.54,5.08-.08,1.68-1.11,4.67-3.99,4.71Z"/>
            <path class="cls-56" d="M470.39,515.72c-2.94-.04-3.05-4.98-1.12-5.89s2.98.42,3.44,1.61.54,4.32-2.32,4.28Z"/>
          </g>
        </g>
      </g>
    </g>
    <g>
      <ellipse class="cls-249" cx="371.11" cy="502.89" rx="4.25" ry="4.25"/>
      <g>
        <path class="cls-240" d="M366.61,516.67l-124.04.17c-6.63,0-5.26-10.3-4.01-21.76l125.32-.25c-3.14,4.94-3.86,9.43-1.38,14.1l4.11,7.74Z"/>
        <g>
          <path class="cls-277" d="M275.71,510.77c-1.67-1.01-1.37-2.59-1.3-5.13-1.02,1.75-.64,3.61-3.03,5.48l-1.41-4.4c-1.41,7.48-4.22,4.02-2.16-6.64,3.56.99,2.97,3.68,4.13,5.06,1.04-1.51,1.16-2.57,1.18-3.4.03-.9,2.26-1.64,2.5-.91.96,2.81.97,5.12.08,9.95Z"/>
          <path class="cls-133" d="M333.68,510.93c-3.2-1.34-3.34-3.48-4.36-5.35-1.43,2.15-.58,3.64-.91,4.79l-1.45.07c-.35-3.22-.56-6.43.17-10.12,3.12,1.43,3.33,3.99,4.29,6,1.51-2.26.45-4.07.88-5.43l1.44-.06-.06,10.12Z"/>
          <path class="cls-174" d="M304.7,508.51c.56-.34-1.28-2.84-.68-3.01.81-.23,2.1-.58,2.67-.3.64.32,1.24,1.79.78,3.28-.73,2.39-4.1,2.97-6.58,1.34-1.69-1.11-2.3-4.06-1.35-6.56s4.29-3.73,7.03-1.57c1.66,1.46-.71,3.3-1.78,1.28-2.78-1.08-3.51.58-3.77,2.6-.24,1.91,1.66,4.17,3.68,2.94Z"/>
          <path class="cls-159" d="M349.61,506.43c-1.3-.34-2.25-.09-2.68.17s-.42,1.83,0,2.11,1.3.61,2.7.25c2.32-.75,2.2,2.53-.04,1.58-1.61.16-3.22.25-4.04-.21-1.3-.73-1.07-8.37-.58-9.01.59-.77,2.79-.75,4.72-.67,2.49-.6,2.06,3.06-.49,1.77-3.11-.98-3.23,3.2-.06,2.24,2.28-1.04,2.93,2.05.48,1.77Z"/>
          <path class="cls-111" d="M252.78,502.63c-2.31.98-1.57,5.97-.06,6.6.56.23,2.03-.4,2.37-1.69,1.08-.83,2.38.38,1.42,1.93-.84,1.36-3.76,1.33-5.36.32-1.36-.86-2.1-3.25-1.7-5.48.44-2.41,1.75-3.2,3.36-3.59,1.91-.46,4.3.85,3.52,3.08-.85-.34-2.7-1.54-3.56-1.18Z"/>
          <g>
            <path class="cls-54" d="M325.36,510.67c-1.93-1.2-3.31-3.05-4.76-2.1-1.61,1.05-3.18,2.48-5.2,1.79-1.42-.49-1.8-2.39-4.25-4.12-.08,2,.07,3.65-1.96,4.5-.42-3.96-.54-6.68.18-9.64,1.96-1.06,6.52-.73,6.57,1.81.05,2.25-2.47,5.15,1.48,6.91,1.18-3.45,1.41-6.61,3.91-9.82,2.62,3.57,3.41,6.4,4.04,10.68Z"/>
            <path class="cls-293" d="M314.5,503.18c.1.47-.94,1.45-1.54,1.76s-2.64.26-2.62-1.25c.01-.72,2.06-1.76,4.16-.51Z"/>
            <path class="cls-279" d="M321.78,504.13c.71-.15.91,2.58-.07,3.04-.76.35-1.46-.15-1.6-.64-.2-.71.24-2.1,1.67-2.4Z"/>
          </g>
          <g>
            <ellipse class="cls-190" cx="290.19" cy="505.62" rx="4.75" ry="4.75"/>
            <path class="cls-24" d="M290.76,508.8c-1.43.71-2.74-1.43-2.84-2.48-.14-1.43.03-3.52,2.01-3.94,1.59-.34,2.43,1.14,2.56,2.02.16,1.11.43,3.32-1.73,4.4Z"/>
          </g>
          <g>
            <path class="cls-190" d="M284.09,505.43c-1.6,1.63-4.51,2.05-5.16,5.92-1.88-3.99-1.21-6.89-.72-10.33,1.09-.84,3.5-.29,4.46-.21,1.17.1,3.51,2.5,1.43,4.62Z"/>
            <circle class="cls-180" cx="281.28" cy="503.85" r="1.2"/>
          </g>
          <g>
            <path class="cls-118" d="M266.23,510.49c-2.33-.64-2.94-2.18-3.95-2.23-1.34-.08-2.08,1.83-4.45,2.6l4-10.97c2.95,3.67,3.27,6.49,4.4,10.61Z"/>
            <path class="cls-263" d="M262.44,504.13c.71-.15.91,2.59-.07,3.04-.76.35-1.46-.15-1.6-.64-.2-.71.25-2.1,1.67-2.4Z"/>
          </g>
          <g>
            <path class="cls-70" d="M342.81,503.55c.54,1.22,1.02,2.72-.02,3.8.03,2.53-2.29,3.14-3.83,3.16-3.25.05-2.93-1.88-3.19-4.44-.31-3.04-.38-5.5,3.02-5.56,1.58-.03,3.79.99,4.01,3.03Z"/>
            <path class="cls-159" d="M342.8,507.35l.02-3.8c.43.5,1.06,1.2,1.16,1.92.12.89-.16,1.88-1.17,1.88Z"/>
            <path class="cls-267" d="M337.55,509.45l.42-7.25c2.86.07,3.45,1.66,3.46,3.32s.14,4.17-3.88,3.93Z"/>
          </g>
        </g>
      </g>
    </g>
    <g>
      <ellipse class="cls-177" cx="468.15" cy="100.81" rx="4.28" ry="4.28"/>
      <g>
        <path class="cls-15" d="M552.98,113.78l-79.72.21,4.28-8.74c2.22-4.53.75-8.73-2.54-12.9h74.74c5.54.01,4.3,10.28,3.24,21.44Z"/>
        <g>
          <path class="cls-141" d="M494.48,104.42c-.83,1.77-.8,3.31-2.58,4.05l-2.1-4.7c.17,2.48.51,4-1.45,5.01-.48-3.57-1.03-6.84.32-10.31,1.91-.72,3.56,2.98,3.26,5.01,1.56-1.49,1.54-2.78,1.48-3.46-.13-1.52,2.75-2.37,3.08-1.1.78,3.08.54,6.11.08,9.46-2.36-.34-1.83-2.33-2.08-3.97Z"/>
          <path class="cls-67" d="M541.18,108.08c-1.98.34-2.88-1.57-4.17-2.27-1.51.83-2.13,2.62-4.33,2.46l4.27-12.32c1.08-.29,1.9-.08,1.8.17l-.64,1.73,3.06,10.22Z"/>
          <path class="cls-13" d="M520.64,105.37l-4.88,3.23c.24-3.76,1.39-7.32,3.95-10.84,2.63,3,3.26,6.52,4.53,9.95-.73.89-3.13.53-3.6-2.34Z"/>
          <path class="cls-218" d="M506.12,108.2c-2.53.39-2.62-2.09-3.43-2.32-1.46-.42-2.74,1.28-4.35,2.76-.91-3.62,1.05-6.9,3.2-10.91,3.04,2.73,3.59,6.1,4.58,10.47Z"/>
          <path class="cls-319" d="M513.83,104.03c1.54,2.87-.33,3.97-2.38,4.26-1.69.24-3.75-1.11-4.43-3.3-.84-2.74.13-4.85,2.13-6.5,1.46-1.21,5.59-.21,4.85,2.37-1.26.08-4.02-1.54-4.71.15s-.86,3.55.65,4.92c1.07.97,3.09-.28,3.89-1.88Z"/>
          <g>
            <path class="cls-48" d="M527.95,104.8c-1.11.31-1.09,2.36-.9,3.01.15.51-1.92.41-1.9-.13l.18-8.86c1.87-.5,4.03-.59,5.9.35,1.25.62,1.07,2.29.87,3.1-.31,1.22-2.11,1.97-4.16,2.53Z"/>
            <circle class="cls-142" cx="528.58" cy="101.4" r="1.6"/>
          </g>
        </g>
      </g>
    </g>
    <g>
      <ellipse class="cls-93" cx="417.88" cy="701.57" rx="4.26" ry="4.27"/>
      <g>
        <path class="cls-280" d="M545.35,714.36l-122.77.03,4.5-8.34c2.27-4.22,1.03-8.33-2.7-12.97l120.76-.06c1.27,7.07,1.15,13.22.22,21.34Z"/>
        <g>
          <path class="cls-155" d="M491.78,708.92l-4.02-2.28c-.95-.54-2.23,1.77-4.12,2.38-.13-3.91,1.53-7.01,3.69-10.85,2.86,3.33,3.62,5.98,4.45,10.75Z"/>
          <path class="cls-222" d="M507.01,704.08c-1.9.46-3.78-.43-5.15,2.22l6.07,1.22c-2.28,1.79-4.63,1.21-7.2.83l-.05-8.99c1.91-.33,3.82-.91,6.54.44l-5.5,1.55,5.3,2.73Z"/>
          <path class="cls-34" d="M531.68,704.69c-2.97-1.55-3.57,2.78-.62,2.3,1.48-.75,2.75-.25,2.94,1.48l-6.71.1.05-9.3c1.8-.4,4.67-.7,6.28.23.26.52-.83,1.85-2.5,1.2-2.55-.99-2.66,2.99.03,2.09,1.35-.45,2.06.08,2.24.44.16.33.14,1.8-1.7,1.46Z"/>
          <path class="cls-158" d="M514.18,706.5c.34-.24-.45-1.33-.62-1.69-.52-1.14.63-1.36,1.3-1.27,1.47.2,1.83.76,1.74,2.42-.11,2.25-2.22,3.03-3.74,2.82-2.08-.29-3.82-1.46-4.08-4.04-.23-2.24.03-4.62,1.86-5.22,2.17-.71,4.86-.67,5.87,1.96-1.9.18-3.68-1.38-4.7-.94-1.36.59-1.59,2.58-1.54,3.59.09,1.77,1.67,3.97,3.91,2.37Z"/>
          <path class="cls-12" d="M499.91,707.85c-2.71,1.32-4.17.75-6.78.55l-.07-9.05h1.44c.52,2,.33,3.96.18,6.78l5.24,1.72Z"/>
          <path class="cls-6" d="M468.02,705.7c.84,2.8-2.68,3.14-2.35.64.71-3.26.05-5.31-2.19-6.64,2.51-.59,4.24-.6,6.7.03-1.6,1.08-3.17,2.46-2.15,5.97Z"/>
          <g>
            <ellipse class="cls-246" cx="449.42" cy="703.84" rx="4.66" ry="4.66"/>
            <circle class="cls-306" cx="449.49" cy="703.7" r="2.9"/>
          </g>
          <g>
            <path class="cls-78" d="M475.28,708.72c-3.74-.32-4.37-3.44-4.28-5.61.11-2.95,2.19-4.75,5.56-3.94,2.56.61,2.98,2.88,2.94,4.96-.04,1.87-1.51,4.83-4.22,4.6Z"/>
            <circle class="cls-315" cx="475.2" cy="703.74" r="2.9"/>
          </g>
          <g>
            <path class="cls-206" d="M462.57,708.56c-1.99.29-2.98-1.78-4.32-4.46l-2.52,4.64c-1.01-3.02-1.27-6.33-.11-9.03.79-1.86,7.02-.57,6.46,1.56-.69,2.62-2.03,3.22.48,7.3Z"/>
            <path class="cls-154" d="M457.36,700.67c.31-.42,1.85-.38,2.37-.25.44.12,1.06.77.61,1.59-.52.96-1.21.54-1.63.65-1.03.29-2.26-.76-1.35-1.99Z"/>
          </g>
          <g>
            <path class="cls-238" d="M526.41,708.22c-3.63.19-3.48-2.48-5.55-3.94-.46,2.74-.23,3.91-2.13,4.72-.31-2.97-.68-5.58-.02-8.87.47-2.3,7.18-1.5,6.61,1.02-.66,2.96-1.32,4.51,1.09,7.07Z"/>
            <path class="cls-132" d="M521.02,700.65c.91-1.06,2.96,1.05,2.82,1.41-.33.82-1.2.53-1.6.61-.88.17-2.25-.82-1.22-2.02Z"/>
          </g>
          <g>
            <path class="cls-186" d="M444.29,702.04c.22,3.69-5.92.47-6.04,7.03l-2.05-9.1c2.11-1.03,4.34-.94,6.52-.25,1.35.42,1.52,1.54,1.57,2.33Z"/>
            <rect class="cls-82" x="438.78" y="700.43" width="3.24" height="3.24"/>
          </g>
        </g>
      </g>
    </g>
    <g>
      <path class="cls-17" d="M631.75,541.57c.77-.49,2.38,1.29,2.18,1.83s-.56,1.51-1.27,2.27l-13.76,14.78c-5.11-5.25-7.34-13.49-2.81-19.54l10.83-8.96,3.66,6.9-9.52,11.47c4.84-1.48,6.74-6.24,10.68-8.74Z"/>
      <path class="cls-9" d="M614.86,560.36l-11.29.17c.74-3.83,1.96-6.26,4.66-8.41,2.7,2.37,4.06,3.92,6.62,8.24Z"/>
      <g>
        <ellipse class="cls-89" cx="582.65" cy="571.76" rx="4.24" ry="4.25"/>
        <path class="cls-60" d="M596.26,587.11c-.04.86-1.35,2.17-1.96,2.14l-11.06-1.61,13.02-.53Z"/>
        <g>
          <path class="cls-42" d="M708.78,584.85l-121.32-.08,5.12-10.02c2.15-4.2-.5-8.27-4.04-11.6l124.95.12c1.33,6.21.66,11.58.71,17.33.03,2.94-1.77,4.26-5.42,4.26Z"/>
          <g>
            <path class="cls-120" d="M671.31,579.13c-3.13-1.47-3.17-3.51-4.65-5.42-.3,2.26.46,3.99-1.86,5.33l-.21-10.19c2.75.24,3.32,2.66,4.46,5.5l1.84-6.11c1.47,3.84.88,6.31.42,10.89Z"/>
            <path class="cls-73" d="M641.37,575.04c-1.73-.83-2.69.19-2.83.56-.63,1.65,2.81,1.02,5.3,2.17l-.63.95-6.44-.09v-9.44s6.44-.04,6.44-.04c.37.3.33,1.7-.07,1.67l-3.03-.21c-2.16-.15-2.19,3.01.29,2.4,2.14-1.35,3.46,1.66.98,2.03Z"/>
            <path class="cls-175" d="M679.33,574.95c-2.28-.45-3.08-.11-3.7-.02s-.63,2.41.36,2.3c2.02-.22,3.5-.65,4.81,1.08-2.92.7-4.37.45-7.35.28v-9.33c2.29-.43,4.99-.8,6.98.3-.22,1.3-1.97,1.68-3.59,1.19-2.16-.66-2.27,2.93.04,2.27,1.98-.99,3.05.68,2.45,1.92Z"/>
            <path class="cls-166" d="M662.91,578.44c-1.24,1.13-2.86-1.47-3.75-1.74s-2.25,1.8-4.25,2.34c.75-5.07,2.6-10.47,4.35-10.1,1.49.32,3.11,4.7,3.64,9.5Z"/>
            <path class="cls-312" d="M648.1,576.58l3.54.13c-.71-3.37-1.11-5.98,1.38-8.21.81,3.18.47,6.15.36,9.8l-4.79.07c-.7-.44-.75-1.26-.48-1.8Z"/>
            <path class="cls-208" d="M612.6,568.59c1.28.93,1.3,3.01,1.93,4.14l-.13,1.96c-.52,1.59-.7,2.7-.92,4.95l-5.24-.86,1.35-8.96c.24-.51,1.21-1.09,1.8-1.14.5,11.95.91,11.92,1.21-.09Z"/>
            <rect class="cls-202" x="681.45" y="568.66" width="2.25" height="9.73" transform="translate(-2.57 3.07) rotate(-.26)"/>
            <path class="cls-81" d="M611.38,568.68l1.21-.09-.14,9.25c-.2.42-.58.55-.73.56l-.35-9.72Z"/>
            <g>
              <path class="cls-127" d="M691.88,578.77l-4.36-4.15c-.1,1.77.13,3.52-2.21,4.38-.03-3.18-.64-6.82.37-9.42.87-1.49,6.62-.71,6.55,1.03l-.35,8.16Z"/>
              <path class="cls-199" d="M687.16,571.03c.28-.38,1.79-.36,2.35-.21.44.12,1.05.77.61,1.59-.52.96-1.23.55-1.66.66-.83.22-2.32-.67-1.3-2.03Z"/>
            </g>
            <g>
              <path class="cls-238" d="M614.4,574.69c-1.45-.01-1.34-1.63.13-1.96.17-2.61,2.51-4.5,4.7-3.94,1.9.48,3.45,2.08,3.75,4.32.41,3.09-.94,5.26-3.49,5.59s-5.29-.94-5.08-4.01Z"/>
              <path class="cls-100" d="M619.45,576.94c-2.41.74-2.93-1.46-3.1-2.36-.3-1.54.18-4.03,2.68-3.72s3.02,5.29.43,6.08Z"/>
            </g>
            <g>
              <path class="cls-219" d="M627.96,578.25c-.02-2.4-.52-6.06.45-8.74,1.29-1.22,5.02-.57,5.86.81.94,1.52,1.26,4.59.58,6.29-.83,2.06-3.63,2.32-6.89,1.64Z"/>
              <path class="cls-156" d="M629.92,577.49c-.39-2.5-.41-5.04.32-6.94,2.99-.06,3.27,1.59,3.3,3.14.04,1.7.22,4.09-3.62,3.8Z"/>
            </g>
            <g>
              <path class="cls-269" d="M609.59,569.82c1.42,1.16,1.42,8.63-1.35,8.96-.86-1.39-1.15-3.12-3.9-4.09.38,1.85.36,3.46-1.66,4.28l-.22-9.68c2.37-.73,4.85-.32,7.13.53Z"/>
              <path class="cls-42" d="M605.15,571.08c.96-1.1,2.97,1.04,2.83,1.37-.38.89-1.15.53-1.56.62-1.13.23-2.19-.92-1.27-1.98Z"/>
            </g>
            <g>
              <path class="cls-26" d="M702.03,575.85c-.63,3.24-4.22,3.22-6.42,2.01-1.97-1.09-2.94-3.37-1.86-6,.84-2.03,3.68-4.29,6.39-2.48,1.65,1.1,2.42,3.71,1.88,6.47Z"/>
              <path class="cls-211" d="M698.65,577.26c-3.31.29-3.28-2.64-3.21-3.74.11-1.89,2.08-3.63,4-2.35s1.41,5.9-.78,6.09Z"/>
            </g>
          </g>
        </g>
      </g>
      <g>
        <ellipse class="cls-137" cx="637.09" cy="529.56" rx="4.2" ry="4.21"/>
        <g>
          <path class="cls-92" d="M716.91,541.41l-27.82.94-46.84-.36,3.83-7.75c2.33-4.71,1.23-9.17-3.05-13.63l37.18-.08c12.25-.03,24.23-1.5,36.38.75,1.21,6.63.95,12.61.32,20.13Z"/>
          <path class="cls-64" d="M664.05,526.57c-1.25,3.3-1.45,6.86-4.11,10.63l-4.1-10.62,1.6-.08,2.53,6.04c1.65-1.9,1.3-3.94,1.97-5.47.67-.56,1.35-.67,2.11-.5Z"/>
          <path class="cls-212" d="M672.94,536.01c-4.76,1.15.69-6.34-6.04-8.63,3.17-1.41,5.11-1,8.57-.44-3.44,2.53-4.13,5.59-2.53,9.06Z"/>
          <rect class="cls-256" x="694.34" y="526.54" width="2.58" height="9.72"/>
          <rect class="cls-284" x="661.33" y="530.42" width="9.15" height="1.4" transform="translate(106.7994 1173.6997) rotate(-87.5495)"/>
          <g>
            <path class="cls-191" d="M693.26,536.22c-2.22.18-3.14-.99-4.52-3.89l-2.28,4.56c-1.35-2.79-1.4-6.28-.47-9.49.57-1.95,6.7-1.16,6.96,1.53.13,1.31-.98,2.28-1.23,2.95-.4,1.06.42,2.39,1.54,4.35Z"/>
            <circle class="cls-285" cx="689.06" cy="529.78" r="1.2"/>
          </g>
          <g>
            <path class="cls-61" d="M684.1,529.65c.57,1.41.14,2.71-.37,4.07-.61,2.89-3.85,3.23-5.83,2.24s-2.67-3.87-1.82-6.19,2.47-3.55,4.59-6.02c.65,2.79,1.92,3.94,3.44,5.9Z"/>
            <path class="cls-191" d="M683.73,533.72l.37-4.07c.64.83.97,1.81.61,2.52-.18.35-.83.81-.98,1.55Z"/>
            <path class="cls-288" d="M679.92,534.65c-1.81-.09-2.18-2.3-2.21-3.28-.04-1.25.48-3.2,2.81-2.94,1.47.16,1.94,1.81,1.95,2.96,0,1.07-.49,3.36-2.55,3.26Z"/>
          </g>
          <g>
            <path class="cls-144" d="M705.5,536.03c-1.96.27-2.43-1.53-3.17-1.77-1.34-.44-2.75.42-4.3,2.07-.15-3.36.79-7.41,3.77-10.43,2.1,3.56,2.64,5.87,3.71,10.14Z"/>
            <path class="cls-210" d="M702.07,531.92c-.12,1.46-1.68.98-1.31-.25-.36-2.46,2.21-1.74,1.31.25Z"/>
          </g>
        </g>
      </g>
    </g>
    <g>
      <ellipse class="cls-258" cx="479.61" cy="434.82" rx="4.25" ry="4.25"/>
      <g>
        <path class="cls-239" d="M474.41,447.94l-74.4-.2c-1.97,0-3.2-1.62-3.22-3.39l-.14-13.97c-.03-2.62,1.75-4.27,4.46-4.26l72.28.07c-3.66,3.96-4.98,8.65-2.87,13.49l3.9,8.26Z"/>
        <g>
          <path class="cls-317" d="M428.99,441.23c-1.03-2.86-.8-6.05-.07-8.96,1.83,2.11,1.09,4.75,1.49,8.3,3.23-6.81,3.1-14.01,5.61-10.36.3.44.28,1.16-.02,2.15l3.18,9.52c-2.27-.18-3.04-1.21-4.95-2.43-1.09,1.9-3.76,3.13-5.23,1.77Z"/>
          <path class="cls-207" d="M447.35,442.17c-3.34-.77-3.59-3.53-5.01-5.53-.3,2.35.46,4.4-1.41,5.82-1.4-3.72-.62-6.78-.35-10.76,2.42.54,3.12,2.79,4.03,5.45,1.66-1.32,1.1-3.18,1.1-4.67l1.33-.3c.71,3.15.35,6.41.32,9.98Z"/>
          <path class="cls-273" d="M411.98,440.02c.93.54,2.15-.08,2.55-.75.25-.43-.13-1.41-1.78-1.63.63-1.17,1.43-1.21,2.83-.96,1.14.2,1.87,1.15,1.03,3.17s-3.44,2.26-4.88,1.9c-2.3-.58-3.38-2.3-3.39-4.83-.01-2.8,1.19-4.14,3.43-4.89,1.51-.51,4.8.38,4.3,2.74l-3.79-.86c-1.32-.3-2.05,1.61-2.08,2.51-.05,1.47.28,2.73,1.78,3.6Z"/>
          <path class="cls-262" d="M453.92,441.25c-1.36.43-1.88.21-1.16-1.09.46-3.14,1.01-6.65,4.08-8.82,1.83,3.74,3.07,7.02,3.75,10.85-2.11-.28-2.5-1.76-3.18-2.11-1.66-.85-2.51.14-3.5,1.16Z"/>
          <path class="cls-313" d="M450.65,432.57c2.21,1.47-.13,5.58,2.12,7.59l1.16,1.09c-1.12,1.16-4.16.9-5.35.57-.17-4.02-.67-7.01,1-9.25h1.08Z"/>
          <path class="cls-8" d="M428.99,441.23c-1.93-1.78-1.57-6.74-.07-8.96l.07,8.96Z"/>
          <g>
            <path class="cls-39" d="M421.96,442.12c-2.74.07-3.73-3.11-3.83-4.69-.13-2.04.38-4.58,2.75-5.31,3.06-.94,5.19,1.21,5.69,3.49.59,2.71-.73,6.41-4.6,6.52Z"/>
            <path class="cls-101" d="M423.09,439.85c-2.68.96-3.1-1.18-3.2-2.41-.12-1.48.39-3.87,2.86-3.61,2.31.24,2.73,5.16.34,6.02Z"/>
          </g>
        </g>
      </g>
    </g>
    <g>
      <path class="cls-53" d="M599.47,663.13c0,2.8-1.78,4.22-4.34,4.22l-122.07-.03,4.61-9.05c2.3-4.52.36-9.31-3.38-12.73l120.75-.16c2.71,0,4.43,1.93,4.43,4.27v13.49Z"/>
      <g>
        <path class="cls-200" d="M532.54,661.83c-2.68-.81-3.27-2.57-4.64-2.5s-2.1,1.3-3.88,2.43c.35-4.22,1.22-7.88,4.18-11.01,2.58,4.21,3.16,6.83,4.34,11.08Z"/>
        <path class="cls-161" d="M587.51,658.75c-.08,2.77-2.61,3-4.39,2.57-1.17-.28-3.21-1.4-2.45-3.14,1.26.07,2.3.87,2.5,1.24.5.89,3.33-.71,2.17-1.34l-3.79-2.02c-.97-.52-.86-3.67.44-4.14,2.67-.98,5.66.4,5.31,1.9-1.79.72-2.84-.75-3.37-.79s-1.5,1.04-1.42,1.98c1.95-.03,5.08,1.13,5.01,3.75Z"/>
        <path class="cls-215" d="M488.97,653.59c.43,2.44,2.56,2.39,4.13,1.91-.6,2.91-2.91,1.93-3.48,2.62s.3,2.89-1.79,3.77c-1.24-3.4-.77-6.5-.57-10.02,2.47-.44,4.07-.5,6.69.21-.83,1.15-1.41,1.83-4.97,1.51Z"/>
        <path class="cls-197" d="M540,661.58c-2.25-1.25-2.75-3.27-4.62-5.54-.72,1.73-.25,3.35-.28,4.94-.42.49-.97.59-1.14.59-.91-2.93-.6-6.39-.3-10,3.44,1.08,3.08,4.06,5.09,5.71.06-2.45-.67-4.35,1.4-5.9.64,3.66.75,5.91-.15,10.2Z"/>
        <path class="cls-109" d="M576.01,660.91c-1.8.67-3.4.44-6.05.37l-.31-9.45,1.42-.03c.82,2.36.53,4.46.69,7.52,1.39.19,2.67-.21,4.25,1.58Z"/>
        <path class="cls-96" d="M501.77,660.56c-2.36,1.56-4.21.91-6.84.58l-.2-7.66c3.39-5.28,1.08,3.1,2.29,5.33.48.88,2.83.42,4.74,1.76Z"/>
        <rect class="cls-109" x="573.18" y="655.4" width="9.68" height="2.57" transform="translate(-96.009 1214.3926) rotate(-88.2503)"/>
        <rect class="cls-174" x="517.07" y="655.48" width="9.7" height="2.41" transform="translate(-144.0657 1166.692) rotate(-88.9677)"/>
        <g>
          <path class="cls-88" d="M547.11,651.19c-.08.65,5.44,2.54,3.02,7.92-.97,2.16-3.16,2.62-4.94,2.15-2.4-.64-3.84-3.54-2.85-6.28.93-2.57,3.21-4.45,5.1-6.43l-.34,2.63Z"/>
          <path class="cls-87" d="M546.14,659.64c-2.33-.1-2.42-2.77-2.1-3.93.25-.9.87-2.54,2.26-2.46,1.97.11,2.27,1.55,2.45,2.46.29,1.45-.13,4.03-2.61,3.93Z"/>
        </g>
        <g>
          <ellipse class="cls-265" cx="506.47" cy="656.5" rx="4.74" ry="4.75"/>
          <path class="cls-84" d="M506.26,659.62c-2.36-.17-2.45-2.8-2.11-3.93.28-.92.74-2.56,2.61-2.48s1.93,1.67,2.13,2.52c.32,1.42-.17,4.07-2.62,3.89Z"/>
        </g>
        <g>
          <path class="cls-103" d="M519.56,661.34c-3.04-.3-3.17-2.99-4.73-4.29-1.19,1.15-.97,2.15-.79,2.72.23.72-.33,1.94-1.81,1.35l.16-8.51c.04-2,7.24-1.16,6.77,1.14-.58,2.8-1.76,4.27.41,7.59Z"/>
          <rect class="cls-151" x="514.21" y="652.98" width="2.86" height="3.38" transform="translate(-221.7773 1042.8678) rotate(-79.5381)"/>
        </g>
        <g>
          <path class="cls-194" d="M568.35,655.54c.32,3.62-1.42,5.68-3.92,5.9s-4.33-1.44-4.61-4.41c-.24-2.55.93-4.44,2.76-5.08,2.65-.93,5.45-.09,5.77,3.59Z"/>
          <path class="cls-167" d="M564.21,659.6c-3.01.02-3.23-5.23-1.11-6.12s2.62.52,3.12,1.32c.84,1.34.86,4.78-2.01,4.8Z"/>
        </g>
        <g>
          <path class="cls-282" d="M557.89,656.85l-3.5,1.24-1.55,3.74c-1.29-3.09-1.47-7.73-.1-9.94,1.54-.9,3.95-.08,4.78.4,1.16.67,2.32,3.87.36,4.56Z"/>
          <path class="cls-51" d="M554.34,653.84c.92-1.17,2.37-.38,2.68.15.59,1.01-.27,1.37-.72,1.77-1.04.91-3.49.03-1.96-1.92Z"/>
        </g>
      </g>
    </g>
    <g>
      <ellipse class="cls-230" cx="348.87" cy="405.71" rx="4.14" ry="4.14"/>
      <g>
        <path class="cls-53" d="M345,418.68l-73.94-.15c-1.33-7.19-1.18-13.41-.18-20.81,23.9-1.07,47.26-1.13,71.22-.33-6.19,7.7-3.08,13.53,2.91,21.3Z"/>
        <g>
          <path class="cls-299" d="M329.73,413.36c-2.56-.55-3.61-2.85-4.67-2.28l-4.29,2.33,4.73-13.14,4.23,13.09Z"/>
          <path class="cls-162" d="M311.91,413.14l-4.19-2.13c-1.04-.53-2.13,1.62-4.6,2.54.61-3.81,1.61-7.06,4.08-10.94,2.97,3.41,3.55,6.74,4.71,10.53Z"/>
          <path class="cls-170" d="M296.84,402.86c3.13,2.34,2.14,6.13,1.25,8.85-.7,2.15-4.9,2.27-5.91.29-1.28-2.51-1.49-6.04.4-8.79l1.72,9.1c3.72-1.92,2.4-5.38,2.55-9.46Z"/>
          <path class="cls-49" d="M289.42,409.8c1.09,2.49-1.34,3.68-3.24,3.34-2.62-.47-3.96-2.46-3.75-5.38.16-2.19,1.26-3.65,2.89-4.14,2.14-.65,4.62-.02,4.51,3.07-1.59-.65-2.94-1.33-3.82-1.25-1.79.18-2.17,2.41-1.75,3.93s1.94,3.08,5.16.43Z"/>
          <rect class="cls-43" x="300.49" y="403.42" width="1.5" height="9.7" transform="translate(-25.91 20.45) rotate(-3.73)"/>
          <g>
            <path class="cls-202" d="M319.54,411.55c-.33,2.02-5.05,2.11-6.66,1.28l-.34-8.79c1.51-.86,5.06-1.15,6.74.38.31,1.54.67,4.54.26,7.12Z"/>
            <rect class="cls-286" x="314.48" y="408.88" width="3.77" height="2.82" transform="translate(-55.61 49.65) rotate(-8.25)"/>
            <path class="cls-236" d="M315.02,405.79c.33-.33,1.43-.47,2.33-.2.6.17.66.65.11,1.13-.78.67-.87.86-1.26,1.03-1.01.43-2.28-.86-1.19-1.95Z"/>
          </g>
        </g>
      </g>
    </g>
    <g>
      <ellipse class="cls-221" cx="513.27" cy="578.47" rx="4.21" ry="4.21"/>
      <rect class="cls-307" x="461.94" y="593.87" width="5.11" height="4.15" transform="translate(-10.24 8.12) rotate(-.99)"/>
      <g>
        <path class="cls-42" d="M508.69,591.35h-95.6c-2.39-.39-3.77-1.94-3.76-4.29l.05-13c.01-2.71,2.08-4.09,4.68-4.09l92.86-.08c-3.51,3.74-4.82,8.48-2.68,13.2l4.44,8.26Z"/>
        <g>
          <path class="cls-253" d="M438.01,585.69l-4.12-1.99c-1.14-.55-2.44,1.08-4.49,2.44.08-3.79,1.35-7.4,4.03-10.95,2.86,3.68,3.48,6.92,4.58,10.5Z"/>
          <path class="cls-190" d="M467,585.92l-4.06-2.18c-.98-.52-2.2,1.59-4.46,2.31.39-3.75,1.78-6.96,4.09-11.07,3,3.35,3.48,5.96,4.43,10.94Z"/>
          <path class="cls-253" d="M426.82,580.08c1.15.93,2.07,2.31,1.22,4.12-.56,1.19-1.92,1.5-3.7,1.53s-3.67-1.54-2.34-3.31c1.33.63,1.98,1.24,2.34,1.58s1.95.13,2.02-.76c.18-2.14-4.58-1.49-4.86-4.39-.16-1.71,1-3.12,3.29-2.96,1.28.09,2.28.35,2.85,1.04.55.65.5,1.73-.18,2.34-.26.23-.47.5-.64.8Z"/>
          <path class="cls-176" d="M475.09,576.24c.54,2.14.73,4.81.19,7.49-.36,1.79-3.15,2.5-4.41,2.06-3.5-1.23-4.3-7.32-1.55-10.26,1.35,3.05.71,5.27.67,8.11,1.39.28,2.04.25,3.29.03v-6.92c.51-.76,1.42-.68,1.81-.5Z"/>
          <path class="cls-205" d="M483.55,585.16c-1.98,1.21-3.68.96-5.84.64l.25-9.6c.17.01.55.15.76.57l.15,6.87c1.42,0,2.97-.53,4.68,1.52Z"/>
          <path class="cls-234" d="M435.64,574.46c-1.2,1.36-3.31,1.36-4.51,0,1.65-.67,2.86-.67,4.51,0Z"/>
          <g>
            <ellipse class="cls-228" cx="488.44" cy="580.87" rx="4.7" ry="4.7"/>
            <path class="cls-257" d="M488.96,583.87c-2.32.4-2.79-1.75-2.87-2.78-.09-1.3.31-3.42,2.29-3.5,1.8-.08,2.24,1.6,2.39,2.47.19,1.1.24,3.46-1.81,3.82Z"/>
          </g>
          <g>
            <path class="cls-302" d="M441.61,585.6c-3.74-.89-4.27-7.16-1.42-8.85,3.42-2.03,6.38.03,6.82,3.46.3,2.33-1.23,6.39-5.4,5.4Z"/>
            <path class="cls-147" d="M442.51,583.79c-2.18-.05-2.4-2.49-2.09-3.77.23-.96.78-2.66,2.7-2.56,1.63.08,1.94,1.7,2.04,2.6.14,1.33,0,3.8-2.65,3.74Z"/>
          </g>
          <g>
            <path class="cls-118" d="M457.78,580.93l-3.77,1.52c-.65.26.56,2.59-1.8,3.77-.79-3.37-.45-6.28-.4-9.84,1.89-.53,3.26-.31,4.76-.17,1.38.14,3.3,2.28,1.21,4.72Z"/>
            <rect class="cls-255" x="453.94" y="577.26" width="2.71" height="3.52" transform="translate(-208.51 898.25) rotate(-77.5)"/>
          </g>
        </g>
      </g>
    </g>
    <g>
      <ellipse class="cls-241" cx="631.52" cy="216.81" rx="4.27" ry="4.27"/>
      <g>
        <path class="cls-27" d="M627.6,229.66h-82c-2.06.01-3.68.23-5.07-1-.95-.84-1.47-2.57-1.46-4.51l.06-11.91c.01-2.58,1.76-4.15,4.4-4.15l81.95.09c-3.81,3.87-5.91,8.71-3.37,12.74l5.49,8.73Z"/>
        <g>
          <path class="cls-283" d="M586.41,218.9c.43-.75,1.8-2.55,1.24-2.72l-3.61-1.09c2.03-1.49,5.01-1.44,7.17,0l-4.82,6.67,4.42.64v1.4s-14.44-.02-14.44-.02l-.02-9.48c3.06-.07,4.9-.25,6.87.48l-.43.95c-1.25.41-3.13-.52-5.15,1.04,1.46,2.03,3.09,1.22,5.27,1.75l-5.63,2.38c3.38,2.85,6.92,1.83,9.14-2Z"/>
          <path class="cls-220" d="M562.07,222.24l3.21-.08c.38,0,.76.76.33,1.71l-6.64-.06c.11-3.02.39-5.45-.35-8.61-3.89.29-3.89,3.73-3.17,6.95.53,2.34-2.59,2.18-2.12.21.89-3.73.05-5.89-2.76-7.87,5.96-.01,10.72-.95,15.63.46-2.17.99-5.07.19-5.37,2.56,3.66.77,5.64.49,3.84,2.1-.48.43-2.71-.11-3.4.15-.6.23-.97,2.51.78,2.47Z"/>
          <path class="cls-231" d="M602.51,224.54c-3.74-1.57-3.33-4.01-4.9-5.99-.3,2.32.8,4.48-1.82,5.82v-10.65c3.26,1.22,3.13,3.51,4.51,5.41.59-2.2-.29-3.89,1.95-5.34.72,3.73.49,6.5.26,10.75Z"/>
          <path class="cls-133" d="M612.48,224.05c-2.74.2-3.06-2.04-3.85-2.18-1.35-.23-2.55.99-4.46,2.44-.23-3.8,1.27-7.32,3.99-10.93,2.45,3.83,3.21,6.8,4.32,10.67Z"/>
          <rect class="cls-71" x="591.81" y="214.39" width="2.32" height="9.72"/>
          <g>
            <path class="cls-283" d="M574.88,224.2l-5.59-4.46c.33,1.77.61,3.65-1.55,4.45-.55-3.37-.46-6.12-.19-9.67,1.45-.86,6.25-.6,6.7,1.22.06,2.98-1.22,5.33.63,8.47Z"/>
            <path class="cls-178" d="M569.56,216.48c.73-1.29,2.23-.6,2.62-.17.93,1.01.38,1.61-.41,2.01-1.35.69-3.22-.06-2.21-1.84Z"/>
          </g>
        </g>
      </g>
    </g>
    <g>
      <ellipse class="cls-294" cx="519.19" cy="139.01" rx="4.3" ry="4.31"/>
      <g>
        <path class="cls-252" d="M514.13,151.85l-60.29.03c-1.9,0-6.47.91-7.16-1.57-1.68-6-1.08-12.6-.19-19.43l65.78-.42c-3.37,4.3-4.65,8.59-2.49,12.84l4.35,8.53Z"/>
        <path class="cls-110" d="M497.47,141.59c-.49,1.43-.39,3.01-1.85,4.87-1.78-1.43-1.71-3.34-2.24-4.91-1.04,1.17-.87,2.68-.59,3.02,1.05,1.25-1.37,2.1-1.4,1.05l-.32-9.49c3.77.02,3.73,2.99,4.18,5.27,1.34-1.64,1.38-2.89,1.35-3.61-.06-1.3,2.79-2.13,3.05-1,.67,2.99.3,6.46.17,8.95-.29.39-1.78.41-1.8,0-.02-.47.49-1.92-.53-4.15Z"/>
        <path class="cls-195" d="M489.88,140.59l-5.86,2.6,6.26,2.02c-2.76,1.61-4.51.96-7.22.76-.42-2.99-.4-6-.01-9.25,2.36-.31,4.11-.57,6.64.37l-5.46,1.47c1.75,2.14,3.01,1.42,5.65,2.03Z"/>
        <path class="cls-160" d="M473.76,140.61l-5.74,2.55,6.13,2.11c-2.75,1.39-4.57.87-7.05.82l-.07-9.35c2.41-.71,4.87-.93,6.75.63l-5.51,1.15c1.58,2.27,2.89,1.51,5.49,2.1Z"/>
        <path class="cls-223" d="M482.48,145.18c-2.55,1.71-4.29,1-6.99.78-.46-2.97-.23-5.98.11-9.33,1.73-.45,2.3.59,1.67,2.14-.55,1.52-.55,3.86.18,4.79s3,.34,5.03,1.63Z"/>
        <g>
          <path class="cls-268" d="M465.02,144.49c-.79,2.26-5.44,1.97-6.85,1.13l.12-8.99c1.59-.61,4.84-.93,6,.56.99,1.27,1.49,5.15.73,7.3Z"/>
          <path class="cls-40" d="M460.57,142.3c.33-.45,1.86-.42,2.4-.28.44.11,1.05.77.61,1.59-.52.96-1.19.53-1.63.65-1.01.28-2.21-.82-1.38-1.96Z"/>
          <path class="cls-112" d="M460.59,137.96c.93-1.11,2.99.99,2.84,1.38-.28.74-1.13.51-1.53.6-1.22.26-2.2-.91-1.31-1.97Z"/>
        </g>
      </g>
    </g>
    <g>
      <path class="cls-53" d="M290.44,468.16c-3.46.05-5.91-1.1-5.91-4.31v-12.92c0-2.52,1.72-4.38,4.33-4.36l37.19.35c1.21,7.02,1.46,13.79-.17,20.74l-35.44.5Z"/>
      <path class="cls-233" d="M312.98,452.2c1.46,5.57,1.44,9.87-2.21,10.38-1.01.14-3.21-.39-3.43-2.01-.4-2.93-.72-6.29.64-8.47.23,2.44-.71,8.19,2.5,8.34,2.52.12,2.34-5.13,2.5-8.24Z"/>
      <g>
        <path class="cls-292" d="M300.29,462.33c-2.32-.35-3.72-3.74-3.6-5.33.15-1.96,1.52-4.85,4.12-4.93,3.15-.1,4.12,2.59,4.37,4.82.3,2.66-1.09,6.01-4.9,5.43Z"/>
        <path class="cls-32" d="M301.66,460.61c-3.31.29-3.28-2.64-3.21-3.75.11-1.83,2.07-3.63,4-2.33,1.99,1.33,1.41,5.9-.79,6.09Z"/>
      </g>
    </g>
    <g>
      <path class="cls-193" d="M718.94,365.26c-1.14,2.44-7.74,2.18-9.79,1.3-.62-2-.63-3.26-.22-5.05,3.17-2.45,9.92-1.71,10.01,3.75Z"/>
      <ellipse class="cls-50" cx="777.51" cy="271.91" rx="4.21" ry="4.22"/>
      <ellipse class="cls-63" cx="721.71" cy="349.12" rx="4.11" ry="4.12"/>
      <path class="cls-276" d="M750.64,338.47l-6.63.02c.67-1.64,1.67-2.01,2.77-2.11,1.73-.16,2.97.17,3.86,2.1Z"/>
      <g>
        <ellipse class="cls-36" cx="771.31" cy="241.69" rx="4.26" ry="4.27"/>
        <g>
          <path class="cls-108" d="M841.53,249.64c.14,2.71-1.2,5.49-3.83,5.48l-61.62-.23,4.1-7.6c2.53-4.7,2.04-9.26-2.09-14.11l31.8-.37,30.84,1,.79,15.83Z"/>
          <g>
            <path class="cls-110" d="M822.99,248.91c-2.95.47-3.24-1.69-4.19-1.96-1.1-.32-2.14,1.67-4.35,2.42-.15-3.45,1.49-6.78,3.51-10.57,3.33,2.56,3.41,6.52,5.03,10.11Z"/>
            <path class="cls-261" d="M807.95,248.73c-2.55,1.11-3.06-1.75-4-1.8-1.22-.06-2.31,1.76-4.61,2.42l4.1-10.88c2.75,3.13,3.36,5.85,4.5,10.25Z"/>
            <path class="cls-189" d="M797.59,249.82l-4.72-6.3c.09,1.99.89,3.73-.93,5.76-1.08-3.23-.78-6.3-.3-10.4l5.14,5.87c-.26-2.38-.81-4.35,1.12-5.82.59,4.02.93,6.42-.31,10.9Z"/>
            <path class="cls-174" d="M812.1,247.25c.54,2.36-2.79,2.4-2.15.01.89-3.3.19-5.44-2.79-7.28,2.69-.94,4.37-.84,7.53-.31-2.18,2.14-3.42,3.99-2.59,7.57Z"/>
            <path class="cls-260" d="M830.38,248.48c-1.93.75-3.82.68-6.74.27l.38-9.64c4.74,2.87-1.53,9.28,6.36,9.38Z"/>
          </g>
        </g>
      </g>
      <g>
        <path class="cls-173" d="M896.23,287.24l-52.77,1.13-6.6-.6-56.16-.04c-.11-.36.27-.98.6-.98l114.93.49Z"/>
        <g>
          <path class="cls-42" d="M898.06,284.5l-48.31.19-66.95.25,3.83-8.5c2.17-4.82.76-9.45-2.82-13.21l108.03-.19c2.07,0,5.7.32,6.14,2.4,1.26,6.03.78,11.47.1,19.07Z"/>
          <g>
            <path class="cls-119" d="M851.02,273.87l-5.62,2.28,6.15,1.96c-2.35,1.83-4.62,1.31-7.28.82l-.09-9.43c2.58-.48,4.27-.58,6.93.23-1.06,1.65-2.31,1.73-5.25,1.5,1.14,2.46,2.54,1.86,5.15,2.65Z"/>
            <path class="cls-76" d="M866.94,275c1.33,2.36-.51,4.26-2.58,4.41-1.94.15-4.46-.84-3.79-3.44.51-.32,2,.45,2.12.87.35,1.24,3.33-.2,2.11-.87l-3.96-2.18c-1.38-.76-.33-3.49.63-4.03,1.81-1.02,4.36-1.06,5.59,1.27.25.47-1.03,1.51-1.38,1.79-.78.63.96,1.65,1.26,2.18Z"/>
            <path class="cls-298" d="M822.23,279.11c-3.24.38-3.58-1.87-4.37-1.96-1.43-.16-2.37,1.15-4.43,2.64-.24-3.95,1.38-7.51,4.05-11.29l4.75,10.61Z"/>
            <path class="cls-187" d="M858.59,277.94c-1.53,1.93-5.38,1.56-6.47-.48-.19-.36.02-1.44.43-1.54,1.29-.33,2.59,2.45,4.23,1.33,2.2-1.5-3.62-2.51-4.3-4.5-.47-1.37.02-2.39.76-2.83,1.93-1.15,4.48-.76,5.39,1.15.24.51-.07,1.21-.64,1.34-.93.21-1.69-2.07-2.9-1.41-3.04,1.67,2.46,1.91,3.76,3.95.71,1.11.27,2.31-.26,2.98Z"/>
            <path class="cls-217" d="M886.69,279.14c-3.01.26-3.32-1.96-4.1-2.08-1.45-.24-2.44,1.15-4.46,2.69-.46-3.95,1.25-7.67,4.05-11.21l4.5,10.6Z"/>
            <path class="cls-201" d="M797.12,275.96c.77.21,1.87,1.05,3.53.79.19-2.56-.85-4.96.5-8.05,2.13,2.97,1.66,6.25.81,9.04-.46,1.52-2.32,1.67-3.3,1.31s-2.31-1.48-1.54-3.08Z"/>
            <path class="cls-69" d="M819.56,267.9c-1.1,1-3.08,1.09-4.37-.15,1.19-.55,2.22-.9,4.37.15Z"/>
            <g>
              <path class="cls-187" d="M824.02,278.26c-2.39-1.82-1.93-6.67.32-8.14s4.82-.71,5.89,1.06c.99,1.63,1.07,3.8.41,5.61-.79,2.19-3.85,3.58-6.62,1.47Z"/>
              <path class="cls-318" d="M827.42,277.27c-2.01.87-3.23-1.56-3.11-2.85.1-1.04.42-2.85,2.19-3.55.81-.32,2.09,1.1,2.36,1.86.35.99.94,3.51-1.43,4.54Z"/>
            </g>
            <g>
              <path class="cls-150" d="M807.23,279.1c-2.69-.45-3.48-3.07-3.46-4.77s.86-4.12,2.98-4.72c3.42-.97,5.37,1.07,5.89,4.08.44,2.58-1.03,6.15-5.41,5.41Z"/>
              <path class="cls-184" d="M809.13,277.13c-1.97,1.17-3.56-1.3-3.31-2.76.21-1.24.27-2.72,2.35-3.65,2.19.4,4.05,4.57.96,6.41Z"/>
            </g>
            <g>
              <path class="cls-76" d="M871.9,279.12c-2.65-.32-3.52-3.08-3.49-4.76.03-1.83.83-4.22,3.04-4.79,3.41-.88,5.19,1.16,5.55,3.71.42,3.01-.54,6.4-5.1,5.84Z"/>
              <path class="cls-79" d="M873.18,277.24c-2.73.45-2.96-2.53-2.68-3.71.23-1.01,1.19-2.96,2.66-2.55,2.63.73,3.07,5.76.03,6.27Z"/>
            </g>
            <g>
              <path class="cls-251" d="M841.83,274.28l-3.72,1.51c-.63.26.62,2.6-1.86,3.71l-.36-9.83c1.89-.46,3.21-.3,4.71-.15,1.33.13,3.3,2.22,1.23,4.77Z"/>
              <path class="cls-214" d="M837.98,271.47c.93-1.5,2.32-.51,2.72.05.73,1.03-.03,1.41-.54,1.82-1.38,1.12-3.29-.08-2.19-1.87Z"/>
            </g>
          </g>
        </g>
      </g>
      <g>
        <ellipse class="cls-114" cx="707.3" cy="204.7" rx="4.3" ry="4.31"/>
        <g>
          <path class="cls-27" d="M811.85,213.16c-.05,2.15-1.99,3.64-4.2,3.65l-94.14.08c2.75-9.16,7.63-14.02-.84-21.69l91.8-.17c1.82,0,6.01.09,6.57,1.8,1.71,5.2.93,10.88.8,16.33Z"/>
          <g>
            <path class="cls-125" d="M795.93,200.68c2.58,3.13,3.29,6.69,4.49,10.46-2.5.04-3.01-1.4-4.52-2.69-3.68,3.52-7.98,3.22-12.56,1.97l5.15-7.64c-1.77-.56-2.89-.3-3.96-.26l-.66-.69c2.37-.65,4.73-.73,7.74-.37l-4.96,7.3c1.93.75,3.73.68,5.01.47,1.61-2.51.98-5.22,4.26-8.55Z"/>
            <path class="cls-127" d="M768.05,211.08c-2.97.26-3.28-1.99-4.06-2.11-1.45-.21-2.47,1.02-4.49,2.52-.2-3.87,1.24-7.47,4.03-11.06l4.53,10.65Z"/>
            <path class="cls-119" d="M783.17,205.88l-5.7,2.09,6.16,2.14c-2.44,1.63-4.55,1.13-7.13.69l-.07-9.24c2.57-.63,4.91-.93,6.88.7l-5.49,1.04c1.3,2.34,2.61,1.83,5.35,2.58Z"/>
            <path class="cls-113" d="M733.17,206.18c-1.34.43-3.3.17-4.1,1.87-.25.54-.08,2,0,2.52.06.4-1.57.48-1.78.08l-.16-9.04c2.22-.64,4.6-.98,6.52.64l-5,.98c.86,2.39,2.36,1.86,4.52,2.96Z"/>
            <path class="cls-14" d="M775.84,210.03c-2.13,1.86-4.34,1.24-6.92.72l.03-8.78c.54-1.18,2.89-.61,1.84,1.53-.45,1.45-.46,3.91.18,4.89.55.85,2.7.41,4.87,1.64Z"/>
            <path class="cls-311" d="M757.15,208.83c.81,2.85-2.73,3.16-2.4.59.66-3.43.45-6.12-2.15-7.68,2.9-.51,4.92-.67,7.76.17-1.1.47-2.75.68-3.1,1.51-.42,1.01-.62,3.12-.11,5.41Z"/>
            <g>
              <path class="cls-271" d="M751.53,211.12l-5.29-4.36c.29,1.8.59,3.66-1.58,4.53l-.18-9.67c1.46-.72,6.25-.75,6.68,1.3.33,2.26-1.2,4.55.37,8.2Z"/>
              <rect class="cls-237" x="746.17" y="202.48" width="3.4" height="2.93" transform="translate(-25.95 158.15) rotate(-11.87)"/>
            </g>
            <g>
              <ellipse class="cls-85" cx="738.67" cy="206.27" rx="4.74" ry="4.74"/>
              <path class="cls-59" d="M736.89,208.47c-1.34-1.1-.32-5.88,1.51-5.86,2.62.03,2.44,2.64,2.59,3.75.3,2.13-1.69,4.09-4.11,2.11Z"/>
            </g>
          </g>
        </g>
      </g>
      <g>
        <ellipse class="cls-22" cx="697.95" cy="378.39" rx="4.25" ry="4.25"/>
        <g>
          <path class="cls-240" d="M783.39,391.38l-69.47.09-8.99-.51c1.27-8.74,6.92-12.99-.08-21.45l84.7.05c1.2,6.66,1.39,13.04.39,19.51-.3,1.97-4.1,2.3-6.56,2.3Z"/>
          <g>
            <path class="cls-168" d="M754.05,385.35c-2.61-.84-3.06-2.29-4.12-2.36-1.21-.09-2.13,1.72-4.47,2.42l3.95-10.73c3.24,3.17,3.89,6.32,4.63,10.67Z"/>
            <path class="cls-74" d="M731.5,385.05c-3.08.4-3.4-2.01-4.22-2.1-1.34-.14-2.24,1.74-4.65,2.46,0-3.72,1.96-7,4.1-10.85,3.01,3.53,3.31,6.82,4.76,10.48Z"/>
            <path class="cls-143" d="M716.81,384.89c-1.36-.53-1.59-1.24-1.87-1.54-.35-.38-.37-1.39.62-1.4,1.07-.02,2.24,1.69,3.18,1.73.53.03,1.44-.87,1.35-1.39-.25-1.44-4.17-1.24-4.95-3.34-.48-1.27.21-2.62,1-3.01,1.93-.96,3.79-.62,5.28,1.08.37.42.32,1.41-.59,1.44-.41.01-1.24-.55-2.02-1.21-5.11,1.34,3.26,1.49,3.11,5.12-.1,2.27-2.26,3.63-5.08,2.52Z"/>
            <path class="cls-38" d="M745.94,375.11c-.21,3.63-1.27,7.38-3.97,10.84-2.34-3.88-3-6.76-3.63-10.05.24-.07.88-.45,1.01-.56l3.17,5.71c.97-1.57-.16-4.1,3.43-5.94Z"/>
            <path class="cls-16" d="M738.65,384.53c-1.61.77-3.15.64-6.11.54-.7-3.07-.48-6.63,0-9.75h1.42c.86,2.15.25,4.99.39,7.68.14.68,2.15,1.25,4.3,1.53Z"/>
            <g>
              <path class="cls-72" d="M755.36,384.94c-.29-2.46-.54-6.28.16-9,1.29-1.05,5.21-.51,6.17.77,1.1,1.48,1.28,4.68.51,6.53s-3.64,2.31-6.84,1.69Z"/>
              <path class="cls-46" d="M758.19,383.51c-1.59-.34-1.85-5.66-.29-6.15,2.16-.67,3.01,1.36,3.02,2.8,0,1.21-.47,3.84-2.73,3.35Z"/>
            </g>
            <g>
              <ellipse class="cls-72" cx="768.08" cy="380.31" rx="4.74" ry="4.75"/>
              <path class="cls-303" d="M768.13,383.58c-1.59-.04-2.14-1.73-2.34-2.56-.3-1.26.13-3.64,2.02-3.93s2.79,1.59,2.75,3.02c-.03,1.21-.65,3.51-2.43,3.47Z"/>
            </g>
            <g>
              <path class="cls-290" d="M781.57,385.13c-2.92-.12-3.16-2.4-5.26-4.35-.46,2.46-.21,3.6-2.15,4.6-.37-3.34-.7-6.2.16-9.11.52-1.75,6.62-1.04,6.42,1.06-.27,2.84-1.38,4.72.83,7.79Z"/>
              <path class="cls-130" d="M779.45,377.88c.09.48-.93,1.44-1.48,1.74-.85.46-2.68.2-2.68-1.21,0-.72,2.05-1.79,4.16-.53Z"/>
            </g>
          </g>
        </g>
      </g>
      <g>
        <ellipse class="cls-242" cx="753.75" cy="324.01" rx="4.11" ry="4.11"/>
        <g>
          <path class="cls-203" d="M833.47,336.09c-6.38,2.31-12.73,1.05-19.27,1.05l-54.48-.02c2.57-8.75,8.08-12.83,1.3-21.29l69.34-.19c1.49,0,3.36,1.03,3.34,2.5l-.23,17.96Z"/>
          <g>
            <path class="cls-291" d="M780.2,326.4c-.81,1.96-.52,3.55-2.79,5.56l-1.67-4.56c-.02,2.08.07,3.55-2.02,4.29-.7-3.19-.94-7.18.07-9.89,2.16-1.21,4.04,2.25,3.84,5.08,1.37-1.17,1.14-2.49,1.17-3.61.02-1.02,1.54-2.24,2.91-1.56.81,2.94.64,5.73.24,9.92-1.51-.91-1.96-1.95-1.75-5.23Z"/>
            <path class="cls-107" d="M791.45,331.78l-3.83-2.57c-.86-.58-2.18,1.82-4.39,2.48,1.07-5.23,2.47-10.28,4.41-10.01,1.38.2,3.33,4.76,3.81,10.1Z"/>
            <path class="cls-310" d="M799.79,328.1c.99,2.04-1.56,3.79-3.21,3.57-2.52-.34-4.11-2.07-4.04-4.98.05-2.32.92-4.41,3-5.21,1.83-.71,5.01,1.1,4.1,3.24l-3.39-1.15c-1.04-.35-2.09,1.38-1.85,3.17.2,1.47.82,2.72,1.98,3.18.72.28,2.02-1.64,3.42-1.82Z"/>
            <path class="cls-245" d="M807.29,325.54c-.14,2.54-2.35,1.7-3.03,1.56-1.08-.23-1.26,2.81.16,2.73,1.89-.1,3.47-.62,4.72,1.13-3.15.77-5.13.51-7.55.06l.24-9.15,6.02-.02v1.24s-4.53.43-4.53.43c-.06,2.86,3.01,2.12,3.97,2.03Z"/>
            <rect class="cls-77" x="806.1" y="325.08" width="9.72" height="2.2" transform="translate(480.2139 1135.292) rotate(-89.6769)"/>
            <g>
              <path class="cls-243" d="M818.22,319c1.53,4.08,5.69,6.51,2.76,10.76-1.11,1.61-3.93,2.04-5.98,1.06-1.64-.79-2.48-3.76-1.62-6.19s3.11-3.79,4.83-5.63Z"/>
              <path class="cls-7" d="M817.74,329.72c-1.98.39-2.57-1.63-2.68-2.52-.16-1.26.39-3.78,2.37-3.85,1.72-.06,2.3,1.95,2.39,2.84.09,1.02,0,3.12-2.07,3.53Z"/>
            </g>
          </g>
        </g>
      </g>
      <g>
        <path class="cls-203" d="M844.34,306.78c.05,3.02-1.65,4.78-4.31,4.78l-65.67-.11c2.88-8.55,7.96-13.02.77-21.19l64.9-.18c2.15,0,4.06,1.21,4.1,3.29l.21,13.42Z"/>
        <g>
          <path class="cls-224" d="M831.4,301.68c-2.22-.46-3.13-.11-3.67,0-.65.13-.69,2.39.31,2.38,1.88-.02,3.16-.3,4.36.41-.07.07-.35.64-.34.87-2,.61-4.01.39-6.53.24l-.1-9.58,6.47.05c.64.8.26,1.52-.1,1.51l-2.89-.1c-2.22-.07-2.18,2.82.06,2.41,1.96-1.06,3.05.58,2.43,1.81Z"/>
          <path class="cls-304" d="M801.39,301.58c-2.92-.91-3.16,2.82-.6,2.51l2.97-.04c.35,0,.73.7.09,1.49l-6.48.04.06-9.59,6.29.02c-.26,1.81-1.38,2.13-2.87,1.59-2.43-.87-2.51,2.93,0,2.15,1.34-.42,2.21.03,2.51.5.24.36-.05,1.92-1.96,1.32Z"/>
          <path class="cls-66" d="M821.72,299.75c2.37-.97,2.46,2.54.22,1.7-2.47.4-2.48,2.72-2.88,4.68-2.22-3.05-.86-6.6-1.03-10.09h5.99c-.09,1.81-1.18,2.18-2.68,1.56-2.49-.76-2.37,3.26.38,2.16Z"/>
          <path class="cls-261" d="M807.31,302.8c.6,1.63,2.16,1.58,2.78.95.42-.43,1.14-1.8,1.81-1.66,1.99,1.64-.46,3.76-1.76,3.98-2.35.41-3.86-1.1-4.45-3.26-.67-2.48-.48-5.16,2.08-6.59,1.55-.86,4.74-.36,5.01,2.56-2.14-.86-4.08-1.69-4.94-.68-.79.93-1.28,2.69-.54,4.7Z"/>
          <rect class="cls-125" x="814.2" y="296.48" width="2.16" height="8.64"/>
          <g>
            <path class="cls-155" d="M795.91,305.68c-1.96.22-3.12-1.65-4.58-4.31l-2.23,4.4c-1.21-2.78-1.59-7.26-.02-9.27s7.02-.21,6.37,1.9c-.81,2.64-2.05,3.17.46,7.28Z"/>
            <path class="cls-83" d="M790.7,297.79c.31-.42,1.85-.38,2.37-.24.43.11,1.06.77.61,1.59-.52.96-1.23.55-1.65.66-.87.23-2.27-.73-1.33-2.01Z"/>
          </g>
        </g>
      </g>
      <g>
        <path class="cls-239" d="M811.7,362.42l-84.31.27c2.27-8.37,8.31-12.13,1.53-21.59l79.46.12c2.17,0,3.73,1.84,3.69,3.8l-.36,17.4Z"/>
        <g>
          <path class="cls-110" d="M790.02,347.33c.67,1.96,1.88,5.83-.02,8.36-1.78,2.36-7.26,1.12-9.08-1.34l-4.71,2.86c.61-4.37,1.64-7.6,4.48-10.94,2.23,3.08,2.38,5.45,3.47,8.23,1.58-.37,2.62-.41,4.73.4.23-1.99-.28-4.1,1.13-7.56Z"/>
          <path class="cls-235" d="M798.69,346.73c2.25,2.59,1.31,6.47.29,9.13-.58,1.53-4.64,1.64-5.42.16-1.39-2.64-1.76-6.43.27-9.56l1.67,9.46c4.21-1.87,2.12-5.42,3.2-9.19Z"/>
          <path class="cls-254" d="M748.61,356.9l-4-2.22c-.92-.51-2.14,1.69-4.5,2.4l4.08-10.89c3.01,3.09,3.62,5.82,4.42,10.7Z"/>
          <path class="cls-204" d="M769.48,350.9c-.2,2.06.27,3.23,1.03,4,.67.68,2.87-.62,4.16-1.4,1.5,2.3-1.37,3.67-3.06,3.41-2.72-.43-4.05-2.43-4.01-5.33.03-2.55,1.03-3.92,2.94-4.54,2.19-.71,4.88.61,4.46,2.95-1.33.19-2.37-.89-2.94-1.23-.69-.41-2.4.33-2.58,2.15Z"/>
          <path class="cls-80" d="M796.03,344.29c.72-.75,1.75-.26,1.88.21.1.35-.7.95-.94,1.21-.75.77-1.92-.41-.94-1.42Z"/>
          <g>
            <path class="cls-134" d="M766.78,356.7c-2.48-.02-2.61-1.53-3.13-1.86-2.28-1.45-3.79,2.47-6.91,1.78-2.53-.55-3.92-7.18-5.02-2.06.73,1.5-.43,2.61-1.73,1.87l.2-9.05c2.45-.98,7.07-.35,6.81,1.69-.36,2.96-1.72,5.01,1.1,7.08,1.63-3.6,1.48-6.49,4.36-9.75,2.37,3.56,3.17,6.87,4.32,10.3Z"/>
            <rect class="cls-131" x="752.21" y="348.18" width="2.87" height="3.54" transform="translate(400.3761 1102.0442) rotate(-89.747)"/>
            <circle class="cls-136" cx="762.42" cy="351.56" r="1.2"/>
          </g>
        </g>
      </g>
    </g>
    <g>
      <polygon class="cls-45" points="621.3 178.11 597.42 187.75 599.11 177.86 621.3 178.11"/>
      <ellipse class="cls-196" cx="591.77" cy="161.98" rx="4.29" ry="4.29"/>
      <g>
        <path class="cls-106" d="M675.45,175.21l-32.79.2-36.65-.03-8.84-.71c3.24-8.49,8.23-12.2,1.86-20.93l79.86.09.6,17.38c.07,2.12-1.48,3.98-4.05,3.99Z"/>
        <g>
          <path class="cls-174" d="M660.76,159.91c2.46-.66,4.54-.72,7.3.09l-5.2,7.6c1.91.6,3.02.36,4.08.33.41.2.56.58.57.75l-9.68.27.19-9.37,1.58-.05.57,8.77,4.57-6.32c-.9-.31-2.56.18-3.98-2.07Z"/>
          <path class="cls-10" d="M624.62,160.16l2.6,9.3c-2.2-.5-3.5-2.9-4.39-2.36l-4.15,2.53c.49-4.32,1.75-6.9,3.33-9.63.1-2.32,2.45-2.07,2.61.16Z"/>
          <path class="cls-179" d="M611.89,168.71c-1.85-1.09-.65-3.75,1.2-2.03.7,1.13,1.55,1.03,1.97,1.02,4.44-.17-3.45-3.31-3.91-4.61s.16-2.59,1.3-3.22c1.04-.57,2.96-.76,4.64.86,1.32,1.49-.57,2.79-1.93,1.01-1.39-1.95-3.83.41-1.4,1.31,1.89.19,3.14,1.02,3.67,1.73.76,1.03.53,2.74-.12,3.34-1.12,1.03-3.05,1.98-5.42.58Z"/>
          <path class="cls-2" d="M654.96,159.45c1.04,2.16,1.11,5.33.22,8.24-.63,2.06-4.96,2.07-5.59,0-.87-2.86-.92-6.16.3-8.39.36,2.7-.04,7.57,2.47,8.67,2.7-.57,2.33-5.03,2.6-8.51Z"/>
          <path class="cls-68" d="M648.05,168.5c-1.83.86-3.87.73-6.41.35l-.03-9.01c.26-.34.57-.55.6-.55.86,1.48.39,3.37.56,5.23.22,2.39,1.64,3.57,5.28,3.98Z"/>
          <path class="cls-153" d="M624.62,160.16l-2.61-.16c-.55-.42-1.04-.7-1.39-1.16-.68-.89-.36-1.67.2-1.81.86-.22,2.53-.27,3.79-.13s.54,2.4.02,3.25Z"/>
          <g>
            <path class="cls-169" d="M633.51,169.16c-4.02.9-5.57-2.18-5.52-4.96.04-2.22,1.77-5.07,4.9-4.79,2.16.2,3.11,2.51,3.39,3.82.41,1.95.14,5.28-2.76,5.93Z"/>
            <circle class="cls-79" cx="632.18" cy="164.49" r="2.9"/>
          </g>
        </g>
      </g>
    </g>
  </g>
</svg>